<svg xmlns="http://www.w3.org/2000/svg" viewBox="0 0 200.81 112.92"><title>Logo</title><g id="Layer_2"  data-name="Layer 2"><g id="soul"><path  d="M.72,43.69a30.6,30.6,0,0,0,4.22,1,34.23,34.23,0,0,0,4.18.73,39.13,39.13,0,0,0,4.73.28q4.23,0,4.23-3.12a3.5,3.5,0,0,0-1.29-2.44,39.81,39.81,0,0,0-3.26-2.75c-1.32-1-2.72-2.12-4.22-3.35a30.11,30.11,0,0,1-4.23-4.22,22,22,0,0,1-3.26-5.37A17.1,17.1,0,0,1,.53,17.62,17.56,17.56,0,0,1,2.1,10,15.38,15.38,0,0,1,6.41,4.5a19.35,19.35,0,0,1,6.48-3.35A26.65,26.65,0,0,1,20.83,0a43.42,43.42,0,0,1,4.41.23l4,.41,3.95.55V18.36c-.49-.06-1-.13-1.65-.19L29.83,18c-.61-.06-1.25-.09-1.93-.09-.36,0-.82,0-1.37,0a9.29,9.29,0,0,0-1.56.23,3.21,3.21,0,0,0-1.29.65,1.55,1.55,0,0,0-.55,1.28c0,.49.41,1.1,1.24,1.84s1.84,1.59,3,2.57,2.51,2.11,4,3.39a28,28,0,0,1,3.95,4.41,26,26,0,0,1,3,5.6,18.65,18.65,0,0,1,1.24,7,21.84,21.84,0,0,1-1.29,7.57,16.12,16.12,0,0,1-4,6.15,19,19,0,0,1-6.94,4.13,29.65,29.65,0,0,1-10,1.52,61.7,61.7,0,0,1-6.47-.32q-3-.33-5.28-.78A44.7,44.7,0,0,1,.72,62Zm7.71,11c.86.19,1.78.34,2.76.46s1.76.23,2.71.32,1.91.14,2.89.14a20.94,20.94,0,0,0,5-.6,12.44,12.44,0,0,0,4.36-2,10.11,10.11,0,0,0,3.08-3.53,11.2,11.2,0,0,0,1.14-5.28,10.2,10.2,0,0,0-1.33-5.05,23.45,23.45,0,0,0-3.4-4.59,56.84,56.84,0,0,0-4.4-4.22c-1.57-1.34-3-2.71-4.41-4.08a25.66,25.66,0,0,1-3.4-4.13,7.76,7.76,0,0,1-1.33-4.27,6.31,6.31,0,0,1,2.11-5.1C15.63,11.61,17.89,11,21,11c.49,0,1,0,1.51.05s1,.08,1.52.14a12.08,12.08,0,0,0,1.47.09V8.9a11.39,11.39,0,0,1-1.38-.09c-.43-.06-.91-.1-1.42-.14s-1.06,0-1.61,0a14,14,0,0,0-8.18,2.25q-3.21,2.25-3.21,7a9.29,9.29,0,0,0,1.33,4.82,24,24,0,0,0,3.4,4.4q2.07,2.16,4.41,4.18c1.56,1.34,3,2.71,4.41,4.08a22.59,22.59,0,0,1,3.39,4.27A8.75,8.75,0,0,1,28,44.24a7.93,7.93,0,0,1-3,6.7q-3,2.3-8.22,2.29a32.06,32.06,0,0,1-5.69-.46q-1.38-.18-2.67-.45Z"/><path d="M40.49,32.12A31.35,31.35,0,0,1,43,19.64,32.18,32.18,0,0,1,60.14,2.52a32.21,32.21,0,0,1,25,0,32.18,32.18,0,0,1,17.13,17.12,31.18,31.18,0,0,1,2.53,12.48,31.2,31.2,0,0,1-2.53,12.49A32.12,32.12,0,0,1,85.12,61.72a32.1,32.1,0,0,1-25,0A32.12,32.12,0,0,1,43,44.61,31.36,31.36,0,0,1,40.49,32.12Zm8.63,0A22.79,22.79,0,0,0,51,41.26,23.64,23.64,0,0,0,63.49,53.78a23.62,23.62,0,0,0,18.28,0A23.61,23.61,0,0,0,94.31,41.26a23.72,23.72,0,0,0,0-18.27A23.68,23.68,0,0,0,81.77,10.46a23.74,23.74,0,0,0-18.28,0,23.91,23.91,0,0,0-7.48,5A23.57,23.57,0,0,0,51,23,22.78,22.78,0,0,0,49.12,32.12ZM72.63,53.23a20.46,20.46,0,0,1-8.22-1.65A21.51,21.51,0,0,1,53.16,40.34a20.46,20.46,0,0,1-1.65-8.22,20.45,20.45,0,0,1,1.65-8.21A21.51,21.51,0,0,1,64.41,12.67a21.18,21.18,0,0,1,16.44,0A21.42,21.42,0,0,1,92.1,23.91a20.28,20.28,0,0,1,1.66,8.21,20.3,20.3,0,0,1-1.66,8.22A21.42,21.42,0,0,1,80.85,51.58,20.46,20.46,0,0,1,72.63,53.23ZM59.77,32.12a12.56,12.56,0,0,0,1,5,13.12,13.12,0,0,0,2.76,4.08A13,13,0,0,0,67.63,44a12.91,12.91,0,0,0,10,0,12.93,12.93,0,0,0,4.08-2.75,12.79,12.79,0,0,0,2.76-4.08,12.91,12.91,0,0,0,0-10A12.79,12.79,0,0,0,81.72,23a13.12,13.12,0,0,0-4.08-2.76,12.91,12.91,0,0,0-10,0,13,13,0,0,0-6.85,6.84A12.55,12.55,0,0,0,59.77,32.12Z"/><path d="M133.06,64.25a35,35,0,0,1-10.47-1.47,21.62,21.62,0,0,1-8-4.41,19.21,19.21,0,0,1-5.09-7.43,28.34,28.34,0,0,1-1.79-10.56V1.47h19.56V39.56a7.8,7.8,0,0,0,1.33,4.91q1.33,1.7,4.45,1.7c2.09,0,3.57-.57,4.46-1.7a7.8,7.8,0,0,0,1.33-4.91V1.47h19.66V40.38a28.34,28.34,0,0,1-1.8,10.56,18.89,18.89,0,0,1-5.14,7.43,21.92,21.92,0,0,1-8,4.41A34.85,34.85,0,0,1,133.06,64.25Zm0-11q-13.77,0-13.77-13.49V8.81H116.9V39.74q0,7.71,4.18,11.8t12,4.08q7.81,0,12-4.08t4.22-11.8V8.81h-2.48V39.74Q146.84,53.24,133.06,53.23Z"/><path d="M162.82,1.47h20.39V46.63h16.9V62.69H162.82ZM195,55.34v-2.2H174.39V8.81H172V55.34Z"/></g><g id="ponies_" data-name="ponies"><path d="M34.65,84.21a17.55,17.55,0,0,1-1.6,7.85,14,14,0,0,1-4.38,5.24,18.9,18.9,0,0,1-6.47,2.94,32.7,32.7,0,0,1-8,.93v10.62H0V67.25H14.22a32.7,32.7,0,0,1,8,.94,18.53,18.53,0,0,1,6.47,2.94,14,14,0,0,1,4.38,5.24A17.51,17.51,0,0,1,34.65,84.21Zm-6.48,0a12.17,12.17,0,0,0-1-5.21,9.44,9.44,0,0,0-2.91-3.6,12.69,12.69,0,0,0-4.44-2.1,21,21,0,0,0-5.57-.71H6.68v33.85H8.41V95.83h5.81a21.4,21.4,0,0,0,5.57-.7A12.88,12.88,0,0,0,24.23,93a9.36,9.36,0,0,0,2.91-3.6A12.17,12.17,0,0,0,28.17,84.21Zm-1.87,0a10.35,10.35,0,0,1-1,4.81,8.15,8.15,0,0,1-2.67,3.07,11.27,11.27,0,0,1-3.84,1.64,20.45,20.45,0,0,1-4.57.5H8.41v-20h5.81a19.88,19.88,0,0,1,4.57.5,11.26,11.26,0,0,1,3.84,1.63A8.15,8.15,0,0,1,25.3,79.4,10.41,10.41,0,0,1,26.3,84.21ZM14.22,89.15h.6a5.36,5.36,0,0,0,4-1.3,6,6,0,0,0,0-7.28,5.4,5.4,0,0,0-4-1.3h-.6Z"/><path d="M35.65,89.55a22.68,22.68,0,0,1,1.84-9.08,23.48,23.48,0,0,1,5-7.44,23.83,23.83,0,0,1,7.45-5A23.44,23.44,0,0,1,68.1,68,23.41,23.41,0,0,1,80.55,80.47a23.44,23.44,0,0,1,0,18.16,23.83,23.83,0,0,1-5,7.45,23.59,23.59,0,0,1-7.44,5,23.32,23.32,0,0,1-18.16,0A23.23,23.23,0,0,1,37.49,98.63,22.64,22.64,0,0,1,35.65,89.55Zm6.28,0a16.66,16.66,0,0,0,1.33,6.65,17.2,17.2,0,0,0,9.11,9.11,17.27,17.27,0,0,0,13.29,0,17.2,17.2,0,0,0,9.11-9.11,17.15,17.15,0,0,0,0-13.29,17.2,17.2,0,0,0-9.11-9.11,17.15,17.15,0,0,0-13.29,0,17.2,17.2,0,0,0-9.11,9.11A16.62,16.62,0,0,0,41.93,89.55ZM59,104.91a14.89,14.89,0,0,1-6-1.2,15.72,15.72,0,0,1-8.18-8.18,15.48,15.48,0,0,1,0-12,15.73,15.73,0,0,1,3.31-4.88A15.54,15.54,0,0,1,53,75.4,15.48,15.48,0,0,1,65,75.4a15.62,15.62,0,0,1,8.18,8.18,15.48,15.48,0,0,1,0,12,15.4,15.4,0,0,1-3.31,4.87A15.57,15.57,0,0,1,65,103.71,14.88,14.88,0,0,1,59,104.91ZM49.67,89.55a9.07,9.07,0,0,0,.73,3.64,9.47,9.47,0,0,0,5,5,9.42,9.42,0,0,0,7.27,0,9.38,9.38,0,0,0,5-5,9.44,9.44,0,0,0,0-7.28,9.32,9.32,0,0,0-5-5,9.42,9.42,0,0,0-7.27,0,9.41,9.41,0,0,0-5,5A9.1,9.1,0,0,0,49.67,89.55Z"/><path d="M84.72,67.25H96.4l12.29,17.16V67.25h14v44.54H110.89L98.67,94.69v17.1h-14Zm7.94,39.19V75.6l22,30.84h1.74V72.59h-1.74v30.85l-22-30.85H90.93v33.85Z"/><path d="M126,67.25h15.08v44.54H126Zm8.41,39.19V72.59h-1.74v33.85Z"/><path d="M144.4,67.25h26.24V78.94h-12v4.94h11.82V95H158.62v5.14h12.49v11.69H144.4Zm21.77,39.19v-1.6H152.81V90.22H165.5v-1.6H152.81V74.2h13.36V72.59H151.08v33.85Z"/><path d="M172.57,98a21.31,21.31,0,0,0,3.08.74,23.89,23.89,0,0,0,3,.53,28.11,28.11,0,0,0,3.44.2c2,0,3.07-.75,3.07-2.27a2.58,2.58,0,0,0-.93-1.77c-.63-.6-1.42-1.26-2.37-2s-2-1.54-3.07-2.43a23,23,0,0,1-3.08-3.08,16.09,16.09,0,0,1-2.36-3.9,12.39,12.39,0,0,1-.94-5,12.78,12.78,0,0,1,1.14-5.54,11,11,0,0,1,3.13-4A14.23,14.23,0,0,1,181.42,67a19.35,19.35,0,0,1,5.77-.83,31.36,31.36,0,0,1,3.21.16l2.87.3,2.87.4V79.54l-1.2-.14-1.2-.13c-.45,0-.92-.07-1.4-.07-.27,0-.61,0-1,0a6.54,6.54,0,0,0-1.13.16,2.38,2.38,0,0,0-.94.47,1.18,1.18,0,0,0-.4.94c0,.35.3.8.91,1.33S191.1,83.3,192,84s1.82,1.54,2.87,2.47a20.2,20.2,0,0,1,2.87,3.21,18.6,18.6,0,0,1,2.2,4.07,13.63,13.63,0,0,1,.9,5.07,16.06,16.06,0,0,1-.93,5.51,11.64,11.64,0,0,1-2.9,4.47,14.07,14.07,0,0,1-5,3,21.74,21.74,0,0,1-7.28,1.1,45.86,45.86,0,0,1-4.71-.23q-2.17-.24-3.84-.57a32.19,32.19,0,0,1-3.54-.8Zm5.61,8q.93.19,2,.33c.62.09,1.27.17,2,.23a20.86,20.86,0,0,0,2.11.1,15.23,15.23,0,0,0,3.64-.43,9.24,9.24,0,0,0,3.17-1.44,7.21,7.21,0,0,0,2.23-2.57,8,8,0,0,0,.84-3.83,7.53,7.53,0,0,0-1-3.68,17.17,17.17,0,0,0-2.47-3.33,40.78,40.78,0,0,0-3.21-3.08c-1.13-1-2.2-2-3.2-3a18.65,18.65,0,0,1-2.47-3,5.63,5.63,0,0,1-1-3.11,4.57,4.57,0,0,1,1.54-3.7q1.53-1.31,4.94-1.3l1.1,0c.38,0,.74.06,1.1.1a7.69,7.69,0,0,0,1.07.07V72.66a7.12,7.12,0,0,1-1-.07c-.31,0-.66-.07-1-.1s-.76,0-1.16,0a10.15,10.15,0,0,0-6,1.64,5.81,5.81,0,0,0-2.33,5.1,6.82,6.82,0,0,0,1,3.51,17.37,17.37,0,0,0,2.48,3.2c1,1,2.06,2.06,3.2,3s2.2,2,3.2,3A15.82,15.82,0,0,1,191.43,95a6.33,6.33,0,0,1,1,3.34,5.76,5.76,0,0,1-2.17,4.87,9.58,9.58,0,0,1-6,1.67,22.81,22.81,0,0,1-4.14-.34c-.67-.08-1.32-.2-1.94-.33Z"/></g></g></svg>
