<svg xmlns="http://www.w3.org/2000/svg" viewBox="0 0 331.23 182.07"><title>WCH</title><g id="Layer_2" data-name="Layer 2"><g id="Layer_1-2" data-name="Layer 1"><path d="M166.11,0h49c1.33,0,2.67,0,4,.07a2.31,2.31,0,0,1,2.44,2.55c0,1,0,2,0,3v73c0,.84,0,1.67,0,2.5-.24,3.08-.85,3.69-4,3.93-1,.07-2,0-3,0H116.66c-.66,0-1.33,0-2,0-4.59-.12-5.11-.57-5.12-5.27q0-37.23,0-74.46c0-4.83.52-5.27,5.6-5.28Q140.63,0,166.11,0Zm-.93,81h0q24.72,0,49.45,0c3.8,0,3.86.07,3.86-3.5q0-35,0-69.93c0-4.4-.16-4.46-4.48-4.58H118.6c-1.17,0-2.33,0-3.5.05a2.27,2.27,0,0,0-2.47,2.49c0,1,0,2,0,3q0,34,0,67.94c0,4.8,0,4.78,4.64,4.54,1.33-.07,2.67,0,4,0Z"/><path d="M9.68,140.48c-.95-.86-1.8-1.27-2-1.91-2.57-6.84-5.1-13.7-7.5-20.6-.6-1.69.88-2.23,2-1.72A5.45,5.45,0,0,1,4.6,119c1.19,2.92,2,6,3.1,9a39.83,39.83,0,0,0,2.16,4.21c.58-1.33,1.25-2.63,1.74-4,1.05-3,1.9-6,3.06-9,.45-1.11,1.41-2.61,2.36-2.8,1.84-.38,2.3,1.45,2.74,2.9,1.19,3.8,2.35,7.61,3.58,11.4a5.59,5.59,0,0,0,1.06,1.42,7.16,7.16,0,0,0,1.07-1.53c1.35-3.57,2.6-7.18,4-10.75a9.43,9.43,0,0,1,1.59-3,2.47,2.47,0,0,1,2.22-.41c.38.14.73,1.41.53,2-2,6-4.18,11.9-6.31,17.85a12.49,12.49,0,0,1-1,2.29c-1.21,2.06-3,2.05-4-.25-1.71-4.14-3.1-8.41-4.67-12.61a6.77,6.77,0,0,0-1-1.41c-.21.44-.46.87-.63,1.32-1.49,4-2.91,8.13-4.48,12.15A14.27,14.27,0,0,1,9.68,140.48Z"/><path d="M93.53,127.75c0-2.84,0-5.67,0-8.5,0-2,.66-3.24,2.84-3.23,4.17,0,8.34-.1,12.49.09.82,0,1.59,1.17,2.38,1.79-.83.68-1.62,1.86-2.5,1.95a63.28,63.28,0,0,1-8.49.08c-1.45-.07-2.76-.3-2.66,1.75.08,1.75-.55,4,2.2,4.23,1.82.17,3.67.06,5.5.11a8.16,8.16,0,0,1,2.95.25,3.55,3.55,0,0,1,1.71,2c.11.32-1,1.45-1.61,1.5-2.65.24-5.32.24-8,.29-1.83,0-2.66.89-2.8,2.74-.21,2.89.12,3.3,3.12,3.27a82.65,82.65,0,0,1,8.48.12c.79.08,1.47,1.34,2.2,2.06-.69.58-1.36,1.64-2.07,1.67-4.33.17-8.67.12-13,.12a2.47,2.47,0,0,1-2.74-2.8c0-3.17,0-6.34,0-9.5Z"/><path d="M313.49,128.22c0-3,0-6,0-9,0-2,.68-3.22,2.85-3.22,4.16,0,8.32-.1,12.48.08.82,0,1.6,1.16,2.39,1.78-.82.69-1.6,1.9-2.47,2a55.84,55.84,0,0,1-9,0c-1.85-.16-2.72-.28-2.49,2.14.36,4,.15,4,4,4a51.57,51.57,0,0,1,6,.16c.75.1,1.38,1.1,2.07,1.68-.74.71-1.4,1.93-2.21,2a46.41,46.41,0,0,1-7,.15c-1.91,0-3,.15-2.81,2.71.24,3.48-.07,3.44,3.55,3.34a57.24,57.24,0,0,1,8,.17c.85.1,1.57,1.35,2.36,2.07-.85.58-1.68,1.63-2.55,1.66-4.15.17-8.31.08-12.47.06-1.85,0-2.71-1-2.71-2.83v-9Z"/><path d="M262.59,128.25c.88,6.77-5.58,12.5-12,12.54-6.19,0-12.56-5.45-12.16-12.5.43-7.7,4.81-12.38,12.45-12.32S262.63,120.5,262.59,128.25Zm-20-.27c-.2,6,3.07,8.58,8.34,8.92,4.39.28,8.24-4,8.23-8.79a8.83,8.83,0,0,0-8.71-9C245.54,119.17,242.56,122.54,242.54,128Z"/><path d="M57.55,127.9c0,3,0,6,0,9,0,1.32,0,2.85-1.87,3s-2-1.32-2.12-2.71c0-.16,0-.33,0-.49-.35-2.06-.71-4.11-1.06-6.17-3.13-.05-6.27-.22-9.39-.06-.52,0-1.27,1.41-1.4,2.25-.25,1.62.09,3.36-.25,4.95-.19.86-1.3,1.51-2,2.26-.61-.66-1.74-1.31-1.75-2q-.19-10,0-19.93c0-.6,1.3-1.66,1.94-1.62s1.42,1.1,1.77,1.87a7.16,7.16,0,0,1,.15,2.47c.16,5.32.16,5.32,5.7,5.33q1.74,0,3.48,0a2.44,2.44,0,0,0,2.73-2.78c0-1.33,0-2.66,0-4s0-2.9,1.86-3c2.19-.07,2.12,1.69,2.14,3.18C57.58,122.25,57.55,125.08,57.55,127.9Z"/><path d="M287.93,124.77a76.34,76.34,0,0,1-1.58,9.23,10.06,10.06,0,0,1-9.43,6.84,10.42,10.42,0,0,1-9.35-7c-1.82-5.17-.92-10.52-.85-15.79a2.53,2.53,0,0,1,1.88-1.68,2.59,2.59,0,0,1,1.79,1.78c.25,2.47.15,5,.18,7.46,0,1.66-.08,3.33.06,5,.33,4,2.61,6.3,6.26,6.38,3.8.08,6.29-2.34,6.54-6.6.16-2.64.05-5.31.06-8,0-1.16,0-2.33,0-3.49.06-1.4.35-2.94,2.13-2.57.75.15,1.64,1.51,1.76,2.41a44,44,0,0,1,.09,6Z"/><path d="M300,115.43c2.31.78,4.66,1.46,6.9,2.39a2.12,2.12,0,0,1,.88,1.87,2.91,2.91,0,0,1-2,1.13c-.57.1-1.25-.33-1.87-.56a22.58,22.58,0,0,0-2.3-.93c-2.76-.69-5.47.36-5.93,2.23s.87,3.34,3.92,4.27c1.11.34,2.27.52,3.36.88,4.11,1.36,6.64,4.4,6,7.4-1,4.29-3.07,6.28-8.23,6.37-2.79.05-5.66-1.56-8.39-2.66-.54-.22-.63-1.57-.92-2.39,1-.28,2.05-1,2.88-.75,1.4.37,2.58,1.6,4,1.95a7.82,7.82,0,0,0,4.37,0,4.1,4.1,0,0,0,2.42-2.72c.1-.91-1-2.42-2-2.89-1.9-.93-4.13-1.17-6.11-2a10.11,10.11,0,0,1-4.08-2.6c-2.95-3.72-.43-9.34,4.47-10.3a18.71,18.71,0,0,1,2.49-.13Z"/><path d="M138.44,115.5c1.45.63,4,1.6,6.48,2.88.58.3.65,1.59,1,2.42a10.62,10.62,0,0,1-3,.65c-.73,0-1.38-.88-2.11-1.26a8.18,8.18,0,0,0-10,1.79,9.58,9.58,0,0,0-.33,11.63,8.22,8.22,0,0,0,9.82,2.54,18.64,18.64,0,0,1,3.16-1.45c.78-.15,1.7.39,2.56.62-.34.83-.45,2-1.07,2.43-4.33,3.31-8.58,3.91-13.48,1.5-4.51-2.22-7.55-7.59-6.76-12.33C125.88,119.45,130.05,116.23,138.44,115.5Z"/><path d="M233.58,128.15c0,2.82,0,5.64,0,8.47,0,1.24.27,3.06-1.62,2.92-.56,0-1-2-1.45-3.14a3,3,0,0,1,0-1c-.16-5.33-.16-5.33-5.68-5.36h-1.5c-5.53,0-5.48,0-5.72,5.33-.07,1.52.76,4.14-1.4,4.14-2.64,0-1.6-2.77-1.65-4.37-.15-4.81-.06-9.63,0-14.45a12.68,12.68,0,0,1,.2-3c.13-.52.79-.91,1.21-1.37.54.52,1.43,1,1.53,1.56a20.11,20.11,0,0,1,.17,4.46c-.12,2.46.78,3.77,3.43,3.63,2.15-.1,4.32,0,6.48,0s3-1,3-3.06a16.94,16.94,0,0,1,.09-4,9.59,9.59,0,0,1,1.58-2.6c.48.93,1.32,1.85,1.38,2.81C233.69,122.16,233.57,125.16,233.58,128.15Z"/><path d="M167.68,116.05c2.49,0,5-.13,7.46.07.73.06,1.4,1,2.09,1.59a17.32,17.32,0,0,1-1.84,2.07c-.32.27-.95.2-1.44.22-1.3,0-3.44-.35-3.72.19a11.61,11.61,0,0,0-.65,4.76c-.08,3.65,0,7.31-.06,11,0,1.53.55,3.77-1.9,3.88s-2.07-2.12-2.1-3.67c-.06-4.32-.1-8.64,0-13,.05-2.36-.21-3.86-3.24-3.24-1.71.34-4.26.4-4.32-2-.07-2.83,2.65-1.7,4.23-1.87a52.68,52.68,0,0,1,5.48,0Z"/><path d="M78.5,129.33c0-1.16,0-2.33,0-3.49-.06-1.82.35-3.94-.46-5.33-.47-.79-3-.15-4.51-.63-1-.35-1.82-1.51-2.71-2.3.91-.52,1.8-1.47,2.73-1.5,4.48-.16,9-.18,13.45,0,1.05,0,2.77,1,2.92,1.84.31,1.71-1.39,1.92-2.74,2a6.31,6.31,0,0,1-2,0c-2-.49-2.68.35-2.65,2.3.07,4,0,8,0,12a10.43,10.43,0,0,1-.15,3.46c-.31.87-1.35,1.48-2.07,2.2-.58-.68-1.61-1.34-1.66-2.06-.2-2.81-.08-5.65-.08-8.47Z"/><path d="M201.11,116.76c-.59,1.06-.92,1.81-1.38,2.48-1.42,2-2.83,4.09-4.34,6.07-2.58,3.38-4.55,6.93-3.84,11.42a3.17,3.17,0,0,1-.27,1.93,2.32,2.32,0,0,1-1.47,1c-.29,0-.88-.48-1-.87a3.82,3.82,0,0,1-.28-1.94c.66-4.29-1.08-7.69-3.68-10.91-1.87-2.32-3.49-4.84-5.16-7.32a6,6,0,0,1-.54-1.8c.75-.2,1.7-.78,2.22-.52a9,9,0,0,1,3,2.46,69.84,69.84,0,0,1,4.16,6.2c1.21,2,2.1,1.64,3.17-.11a56,56,0,0,1,4.19-6.19,11.86,11.86,0,0,1,3.49-2.47C199.65,116,200.35,116.48,201.11,116.76Z"/><path d="M114.49,169.88c-1.23,3.51-2.39,7-3.68,10.4-.19.52-1.06,1.26-1.36,1.16a3.26,3.26,0,0,1-1.73-1.47c-.56-1.2-.78-2.55-1.25-3.79a7.16,7.16,0,0,0-1-1.45c-.36.52-.73,1-1.07,1.55a4.89,4.89,0,0,0-.19.46l-2.47,4.7a44.84,44.84,0,0,1-3.09-4.75,23.08,23.08,0,0,1-1.72-5.21,8.41,8.41,0,0,1,.3-2.77,9.29,9.29,0,0,1,2,1.81,30.84,30.84,0,0,1,1.22,3.26,9.27,9.27,0,0,0,1.05,1.56,7.45,7.45,0,0,0,1-1.44c.53-1.4.81-2.9,1.45-4.24.77-1.61,2-1.54,2.91.08s1.89,3.54,2.83,5.31c.85-1.8,1.64-3.62,2.58-5.36.26-.48,1-.7,1.49-1Z"/><path d="M180.1,174.71q.65-3,1.28-6.06c1.69,1.41,3.42,2.78,5.06,4.24.6.53.94,1.38,1.57,1.88.2.17,1.29-.22,1.32-.45.18-1.3,0-2.66.27-3.94.12-.66.81-1.21,1.24-1.81.51.59,1.42,1.16,1.45,1.77a82.06,82.06,0,0,1,0,9.41c-.12,1.76-1.48,2.13-2.76.78-1.48-1.54-2.71-3.32-4.11-4.94a1.57,1.57,0,0,0-1.24-.54c-.29.06-.56.71-.63,1.13-.23,1.46-.3,2.94-.59,4.38-.07.36-.83.93-1.06.84-.51-.2-1.21-.73-1.25-1.17-.14-1.8-.05-3.63-.05-5.44Z"/><path d="M234.5,175c0,1.66.08,3.32,0,5a1.94,1.94,0,0,1-1,1.46,2.06,2.06,0,0,1-1.67-.7c-1.56-1.93-3-4-4.52-5.91a4,4,0,0,0-1.15-.73,4.37,4.37,0,0,0-.52,1.26c-.11,1.65,0,3.32-.24,4.95-.05.45-.76,1-1.27,1.14-.23.09-1-.52-1-.84a102.59,102.59,0,0,1-.05-10.81c.11-1.55,1.85-1.77,3-.44,1.72,2,3.27,4.15,4.91,6.22.19.23.7.54.75.49.3-.29.69-.66.72-1,.15-1.81.15-3.63.33-5.44,0-.28.65-.56,1.05-.7.12,0,.57.41.59.67.14,1.81.22,3.62.31,5.44Z"/><path d="M66.55,128.08c0,3.14.09,6.3-.07,9.44,0,.78-.92,1.52-1.42,2.28-.78-.71-2.06-1.3-2.25-2.15a25.11,25.11,0,0,1-.27-5.43c0-3.65,0-7.29,0-10.94a6.7,6.7,0,0,1,.26-2.93c.46-.85,1.53-1.38,2.34-2,.47.78,1.31,1.54,1.35,2.34C66.65,121.78,66.55,124.93,66.55,128.08Z"/><path d="M116.47,174.92a4.67,4.67,0,0,1,0-1c.38-1.85.32-4.91,1.31-5.3,2.15-.85,4.84-.39,7.31-.36.3,0,.82.66.82,1a1.42,1.42,0,0,1-.73,1.15c-1.61.32-3.27.41-4.87.76-.47.1-.82.78-1.23,1.2.49.32,1,.66,1.49.95.11.07.32,0,.48-.06,1.5-.22,3.57-.54,3.74,1.26.23,2.28-2.12,1.2-3.37,1.54a8.28,8.28,0,0,0-1.45.25c-.4.19-1,.71-.93,1,.12.54.53,1.35.94,1.42,1.62.29,3.3.25,4.92.54a1.27,1.27,0,0,1,0,2.54,30.14,30.14,0,0,1-6.44,0c-.75-.11-1.66-1.48-1.86-2.41a20.79,20.79,0,0,1-.09-4.47Z"/><path d="M194.49,175c0-.83,0-1.65,0-2.48.11-4.19,1-5,5-4.46,4.39.54,7.65,4.45,6.79,8.15s-6,6.74-9.77,5.62a3.64,3.64,0,0,1-1.9-2.39,21.16,21.16,0,0,1-.08-4.44Zm2.12-.45c-.13,3.37.45,4.36,2.54,4.38a4.12,4.12,0,0,0,4.28-3.93c.22-2.44-.88-3.73-3.34-3.92C197.45,170.89,196.73,171.6,196.61,174.56Z"/><path d="M207.55,174.85c-.11-3.17,3.25-6.66,6.59-6.84s7.09,3.21,7.29,6.73c.19,3.35-3.45,7.18-6.86,7.22S207.68,178.47,207.55,174.85Zm6.6,4.14c2.72.12,4.25-1.4,4.29-4.27a4.08,4.08,0,0,0-3.92-4.28,4.17,4.17,0,0,0-4,4.27C210.44,177.6,211.51,178.88,214.15,179Z"/><path d="M178.56,175c0,3.35-3.27,7-6.39,7.06-3.58.1-6.61-3.15-6.69-7.16a6.34,6.34,0,0,1,6.77-6.81C175.94,168.17,178.56,171,178.56,175Zm-2.3,0c.11-1.72-2.12-4.34-3.91-4.59-2.1-.29-4.46,1.87-4.66,4.27a4.06,4.06,0,0,0,3.84,4.36A4.19,4.19,0,0,0,176.26,174.91Z"/><path d="M133.63,170.33l-2.46,1c.64.78,1.25,1.59,1.93,2.32.2.22.62.22.93.33,2,.72,3.82,2,3.27,4.27-.31,1.3-1.85,2.63-3.17,3.29-2.16,1.1-4.16,0-5.84-1.52-.2-.18-.36-.73-.24-.88a1.7,1.7,0,0,1,1.07-.7c1.46,0,2.92.29,4.39.31a1.43,1.43,0,0,0,1-.89c.08-.3-.34-.91-.68-1.08-1-.5-2.17-.81-3.23-1.25-1.79-.74-3.3-1.78-2.94-4s2.13-2.84,3.92-3.29a3.72,3.72,0,0,1,2.4.17,9.34,9.34,0,0,1,2,1.85l-2.13.67Z"/><path d="M150.53,127.8c0-3.16-.1-6.32.08-9.47,0-.67,1.07-1.29,1.64-1.93.43.63,1.21,1.26,1.22,1.9.09,6.48.11,13,0,19.43,0,.65-1.08,1.29-1.65,1.93-.43-.63-1.2-1.25-1.22-1.9C150.47,134.44,150.53,131.12,150.53,127.8Z"/><path d="M155.56,174.79a35.36,35.36,0,0,1,.06-4.49c.09-.67.81-1.25,1.25-1.88.54.69,1.4,1.32,1.54,2.09a19.15,19.15,0,0,1,.1,4.48c-.15,2.59.6,4.23,3.57,4.06a4.11,4.11,0,0,1,1.92.42,1.45,1.45,0,0,1,.7,1.15,1.42,1.42,0,0,1-.89,1,38.55,38.55,0,0,1-6.44.15c-.65-.06-1.58-1.24-1.71-2a31.76,31.76,0,0,1-.08-5Z"/><path d="M143.78,168a17.23,17.23,0,0,1,3.11.29,2.44,2.44,0,0,1,1.29,1.26c.11.23-.38,1.09-.69,1.14-3.64.67-2.66,3.51-2.94,5.86-.18,1.61,1,3.63-1.19,4.76a30.75,30.75,0,0,1-.86-4.6c-.09-2.64.31-5.22-3.17-6.31-1.13-.36-.47-1.81.67-2.07A24.06,24.06,0,0,1,143.78,168Z"/><path d="M158.52,14c9.48,0,19,0,28.45,0,5.68,0,7.54,1.83,7.56,7.42q.06,20.72,0,41.43c0,6.07-2.07,8.19-8.05,8.2q-27.45.09-54.91,0c-6.16,0-8-2-8.06-8.05,0-13.64,0-27.29,0-40.93,0-.83,0-1.67,0-2.5.39-4.13,1.81-5.53,6-5.56C139.22,13.93,148.87,14,158.52,14Zm.27,2.76v-.18c-9.81,0-19.62,0-29.43,0-1.73,0-2.48.72-2.68,2.22a21.37,21.37,0,0,0-.13,3V62.19c0,.67,0,1.34,0,2,0,2.4,1,3.79,3.56,3.79,1,0,2,0,3,0h52c1.17,0,2.34,0,3.49-.09A2.82,2.82,0,0,0,191.41,65c.07-1,.07-2,.07-3q0-20,0-40c0-.83,0-1.66,0-2.49-.09-2-1.09-2.89-3.19-2.87C178.43,16.77,168.61,16.73,158.79,16.73Z"/></g></g></svg>