<svg xmlns="http://www.w3.org/2000/svg" viewBox="0 0 413.59 383.57"><title>Arts</title><g id="Layer_2" data-name="Layer 2"><g id="Layer_1-2" data-name="Layer 1"><path d="M227.17,282.06c-18.4.65-35.34-3.58-51.68-9.92a135.68,135.68,0,0,1-43.15-27.31c-15.73-14.52-26.82-32.12-34.63-51.82-4.55-11.47-6.83-23.55-7.92-35.9a126.71,126.71,0,0,1,11.75-65.53C109.86,73.7,121,57.64,136.88,45.15c11.6-9.13,23.66-17.37,37.37-22.79,13-5.13,26.27-9.24,40.37-10.62,14.6-1.43,28.82.27,43.1,2.83,15.46,2.76,29.66,8.89,43.11,16.58,7,4,13.1,9.65,19.51,14.68,12.41,9.73,21,22.59,29.08,35.84a109.55,109.55,0,0,1,13,31.77,137,137,0,0,1-11.16,94.1c-10.72,21.73-26.56,38.78-46.83,52C289.88,269,274,275.29,257.28,279.3A113.76,113.76,0,0,1,227.17,282.06ZM289,251c-.25,3,1.62,4.5,3.84,5.78H298l2.68-2.45c.66-8.39-1.19-10.24-7.32-8.55-1.19,1.75-.78,3,1.19,3.8l3.29-2.29c.69,4,.37,4.32-4.95,5.57L289,251v-4.73c2.47-4.85,6.65-5.09,10.46-5.8-.22-3.55-.42-6.85-.63-10.26l-2.25.36-1.05-1.49-8.74,15.77Zm-10-42c3.17,3.34,6.35,6.67,9.49,10,1.28,1.37,2.13,2.86.65,4.55-2.79-3-5.23-6.05-8-8.66-4.64-4.31-7-5.3-10.61-5,4,3,8.28,5.35,11.45,8.78s5.13,7.8,7.67,11.85c3.49-6.82,1-15.76-5.22-19.15-1.73-.94-3.62-1.57-5.44-2.34-3.52-3.71-7.21-7.27-10.52-11.16-5.21-6.09-6.48-13.22-5-21a31.52,31.52,0,0,0,.53-6.93,9,9,0,0,0-3.19-7c-1.46,6.67-3.56,12.38-3.84,18.57A24.94,24.94,0,0,0,262.67,199C266.93,204.22,272.7,207.09,279,209ZM225,183c-1.93,3.29-3.75,6.64-5.81,9.83-5.72,8.87-5.41,17.88-.85,27,2.23,4.47,4.58,8.88,6.75,13.37,3.55,7.34,2.95,14-2.85,20.19A61.33,61.33,0,0,0,214,265.28c-2.24,4-1.29,6.9,2.09,9.32a6.57,6.57,0,0,0,2.83-6,9.18,9.18,0,0,1,3.33-7.5c1.58-1.47,3.23-2.87,4.9-4.24,2.57-2.11,5.39-4,7.72-6.3a12.12,12.12,0,0,0,3.35-11.88c-1.46-6.75-5-12.17-9.36-17.32-8.7-10.26-10-21.75-5.1-34.12A40.85,40.85,0,0,0,225,183c4.08-4.4,5.54-9.83,3.19-15.1-3.21-7.2-3.42-14.32-2.55-21.9a87.45,87.45,0,0,0,.21-16.42c-.19-2.46-1.87-4.86-3.16-7.12-.41-.71-1.76-.89-3.26-1.58,5.45,10.87,5.51,12.37,2.51,23.11a27,27,0,0,0,.23,16.69C224.81,168,226.54,175.25,225,183Zm-52.22-76.36c-2.29-.82-4.36-1.45-6.33-2.3a57.78,57.78,0,0,1-5.77-2.92,7.32,7.32,0,0,1-3.88-6.54c-.17-5.14,2.85-8.41,8.65-8.92a33.55,33.55,0,0,0,16.11-6c3.17-2.15,6.4-4.21,9.7-6.15,6.79-4,13.9-7.43,21.68-8.69a81.52,81.52,0,0,1,25.34-.39c18.87,2.79,35.09,10.29,46.94,25.62,6.91,9,13.39,18.24,19.73,27.6a26.74,26.74,0,0,1,3.45,9.24c.88,4-1.51,7.18-5.66,7.78a58.64,58.64,0,0,1-7.39.21l-7.43.16c2.32,11.71,7.8,22.17,5.78,33.8l-4.12,3.19c-1.74,11.51-.14,22.13,8.27,30.95,5.81,6.1,8.65,12.76,5.5,21.31a18.62,18.62,0,0,0-.35,13.22c1.69,4.54,4,6.35,8.47,6.26,4.79-.1,6.83-1.83,8.35-7.67L316,231.32h-6.3c-2.11,4.17-2.11,4.17,1.6,6.34l3.78-4.15c-.13,3.09-.22,5-.29,6.7-5.38,1.39-5.76,1.31-9.56-2a14.11,14.11,0,0,1-.36-1.79c-.36-5.27,2.15-8.36,7.53-9.3,4.53-.8,7.6,1.4,9,6.47.45,1.66.85,3.34,1.38,5.44a26.42,26.42,0,0,0,3.1-2.64c5-6,10.51-11.71,14.72-18.23,13.91-21.5,20.1-45.5,21.24-70.87.38-8.66-1-17.2-2.6-25.74A126.26,126.26,0,0,0,338.08,72c-11.82-16.82-26.93-29.81-44.66-39.88a134.69,134.69,0,0,0-13.61-6.19c-15.8-6.74-32.43-9.78-49.47-10.78-8-.48-15.93.59-23.84,1.78a125.39,125.39,0,0,0-40.63,13.22c-2.78,1.48-5.26,3.53-8.07,4.94a95.13,95.13,0,0,0-23,16.63c-11.39,10.93-21.12,23.14-28,37.41-9.67,20.15-14.36,41.34-13,63.8.74,12,2.3,23.85,6.09,35.29,7.25,21.87,20.14,40,37.17,55.33a44,44,0,0,0,4.64,3.24c2.24-3.34,3.88-6.65,6.32-9.18,2.59-2.68,5.94-4.63,8.7-6.7,0-3.08-.2-5.42.05-7.71s.34-4.91,1.56-6.64a95.07,95.07,0,0,1,10-11.73c3.62-3.63,7.72-6.79,10.87-11.62l-6.08-8.92,1.37-3.76c-.94-3.9-1.66-6.92-2.4-10l-6.34-1.5c-2.26-4.38-2.53-6-.52-9.24a21,21,0,0,0,3.08-8.83,21.11,21.11,0,0,1,2-5.6c.79-1.82,1.75-3.56,2.57-5.19-.66-2.53-1.24-4.77-1.8-6.89C175.38,124.48,174.45,115.65,172.81,106.67Zm106.64,19.09c.61-4,1.41-6.74,1.34-9.46s-1-5.57-1.71-9.3c7,5.94,4.35,13.37,5.46,20.43a82.11,82.11,0,0,0,8.65,3.23,8.86,8.86,0,0,0,9.08-2.88c2.51-2.83,2-6.19.65-9.43a16.26,16.26,0,0,0-1.56-2.53c-2.12-3.18-4.19-6.4-6.39-9.53-6-8.58-11.82-17.29-21.11-23-8.12-4.94-16.21-9.76-25.43-12.51-10.59-3.16-21.22-3.41-32.1-2-10,1.32-19.25,4.33-26.94,10.81a36,36,0,0,1-19.3,8.46c-3.1.4-6.29,1-9,3.95v7c3.49,1,6.44,2,9.47,2.76a5.65,5.65,0,0,0,5.8-2.1c2.28-2.66,4.52-5.34,6.84-7.94a10.81,10.81,0,0,1,2.05-1.42c-2.1,7.12-6.47,13.28-5.89,21.29,6.1.45,11.88.78,17.64,1.31,8.26.75,16.58,1.26,24.76,2.57,11.49,1.84,22.88,4.24,34.29,6.56a60.56,60.56,0,0,1,7.5,2.51l7.32,2.51a2.67,2.67,0,0,0-1.48-2.28c-4.59-2-9.08-4.25-13.84-5.66-9.72-2.87-19.63-5.11-29.38-7.88-9.12-2.59-18.14-5.52-27.79-5.4-1.66,0-3.33-.78-5-1.2l.1-1.19a23.33,23.33,0,0,1,4.13-.42c7.28.54,14.57,1.09,21.83,1.82a116.55,116.55,0,0,1,31.42,7.58c6.77,2.69,13.15,6.37,19.74,9.54C273.1,123.19,275.68,124.16,279.45,125.76ZM171.51,167l7.61-4.84,5.32,1.22v-5.31c4.42,1.23,3.1,5,4.35,8.23,1.83,1.22,4.11,2.88,6.51,4.31,3.77,2.24,5.85,5.6,5.79,9.84s-.81,8.56-1.3,12.83c-.53,4.64-3.78,8.08-5.44,12.21-2.89,7.15-1.77,13.93,2.36,20.25a14,14,0,0,0-1.18-4.64c-2.66-6.38-1.12-12,3-17.21,1.13-1.43,2.57-2.61,3.77-4a42.51,42.51,0,0,0,4.08-5c4.14-6.38,3.48-13.15-1.63-18.75-1.57-1.72-3.11-3.46-4.52-5.31-.46-.6-.45-1.56-.92-3.41,4.55,3.4,7.13,7.06,9.74,10.61,3.77,5.13,4.14,10.73,1.53,16.53-.35.79-.76,1.55-1.15,2.32,8.62-7.25,10.21-20.55,4-29.75-2.81-4.18-2.05-10.65,2-13.87-1.1,7.53-.58,14.49,4.31,20.44a24.31,24.31,0,0,0-.42-5.41c-1-5.69-2.83-11.26-1.35-17.2,1-4.19,1.46-8.53,2.45-12.73a12.25,12.25,0,0,0-1.25-9.65c-3.54-5.59-8.19-10.15-14.95-11.57a90.73,90.73,0,0,0-13.8-1.92c-4.22-.23-8.62-1.09-13.16,1.16-.79,6.46-3.29,12.69-2.37,19.51.56,4.13.75,8.37-2,12-3.85,5.14-3.52,11.58-6.09,17.63Zm116.61-2.33c4.53-11.17-.21-25.58-11.84-31.35a120.82,120.82,0,0,0-37.85-12.06c-3.21-.43-6.53-.07-10.51-.07,2.62,10.36-1,20.94,3.61,30.13,6.18,1.11,11.86,1.67,17.25,3.21,7.17,2.06,14.12,4.88,21.15,7.38C275.75,164,281.58,165.93,288.12,164.71ZM209,274.31c.24-6.41,3.15-11.24,6.39-15.95,1.41-2.06,2.82-4.12,4.17-6.22a21.84,21.84,0,0,0-.93-24.8,95.7,95.7,0,0,1-5.53-8.3c-2.53-4.27-4-8.78-2.32-13.81.14-.43-.12-1-.26-1.89-4.28,4.59-4,9.09-1.39,13.7,3,5.42,2.8,11,.11,16.25-2.16,4.28-4.91,8.27-7.47,12.34-2.13,3.37-4.71,6.49-6.48,10-2.37,4.77-3.06,9.89-.38,14.88a11.94,11.94,0,0,0,2.43,2.44l1.09-.58a20.35,20.35,0,0,0-.39-3.6c-2.49-8.43.26-15.26,6-21.4,2.35-2.51,4.19-5.49,6.31-8.22a20.07,20.07,0,0,1,1.84-1.85,4.63,4.63,0,0,1-.14,3.92,45.79,45.79,0,0,1-3.57,4.79c-3.95,5-7.49,10.28-7.89,16.9-.24,3.9-.13,7.87,3.32,11l2.26-2.65ZM231,159.37c.2,1.9.44,3.19.44,4.48,0,3.61.37,7.3-.22,10.82s-2.17,7-3.3,10.44a39.9,39.9,0,0,0-2.14,16.64,40.66,40.66,0,0,0,10.83,23.61c3.74,4.14,6.89,8.52,7.39,14.33.13,1.59.33,3.37,2.86,4.1,1.92-4.57,3.54-9.1.58-13.69-2.15-3.34-4.91-6.27-7.34-9.43-7.58-9.85-11.87-20.43-7.19-32.95,1.93-5.14,3.88-10.26,6-15.34,2.4-5.87,1.61-9.93-3.07-13.38Zm-65.47,58c.27-4.78,1.41-6.85,5.48-9.9,1.86-1.4,3.91-2.59,5.63-4.13,1.57-1.41,3.2-3,3.18-6.2-4.42,3.87-8.38,6.94-11.86,10.47-5.85,5.93-8.42,13-6.47,21.43a38,38,0,0,1,1.07,4.36c.74,6.79,1.68,13.58-2.21,19.91-.87,1.43-.94,3.35-1.55,5.64l5.31,1.12c.46-2.91.82-5.17,1.25-7.85,1.18-1.54,2.49-3.46,4-5.21a13.92,13.92,0,0,0,3.73-10c-.07-1.83,0-3.67-.06-5.5a10.78,10.78,0,0,1,2.85-8.23,44.16,44.16,0,0,0,3.68-5.49c-6.17,3.52-10.91,7.82-10.75,15.5,0,2.42-.22,5.08-2,7.24a56,56,0,0,1,.73-11.67c1.06-5.93,3.74-10.93,9-14.42a23.35,23.35,0,0,0,5-4.85c1.75-2.15,2-4.61.75-7.59-1.85,2.06-3,4-4.74,5.16-4.09,2.62-8,5.36-10.7,9.48C166.6,217,166,217.12,165.54,217.38Zm88.85-58.15a44,44,0,0,0-2.15,5.12c-1.82,7.06-3.37,14.2-5.34,21.22-1.76,6.32-1.45,12.24,2.59,17.55a82.89,82.89,0,0,0,6.69,7.23c2.65,2.73,5.71,5.13,6.72,9.07,1.07,4.18,2.1,8.36,3.27,12.5.28,1,1.05,1.84,2.07,3.57,3.77-10-2.74-16-6.63-22.79a38.78,38.78,0,0,1,4.73,3.89c5.24,4.67,6.93,10.32,5,17.12a61.46,61.46,0,0,0-1.12,6.67,4.59,4.59,0,0,0,2.93-2c3.46-5.81,2.62-16-1.79-21.67A46.06,46.06,0,0,0,257,204.64,17,17,0,0,1,248.32,193c-.9-3.92-.83-7.85,2.53-11.75,1,5.32-2.49,10.32,1.62,14.87,3.44,3.81,6.51,7.78,11.69,9.31A8,8,0,0,0,262,203a18.31,18.31,0,0,1-8-16.29,51.48,51.48,0,0,1,2.26-12.65,21.77,21.77,0,0,0,.63-10.3C256.64,162.54,255.62,161.43,254.39,159.23Zm-11,.18a24.1,24.1,0,0,0-.4,4.2c.42,4.65-1,8.87-2.71,13.06q-1.32,3.24-2.42,6.56c-4.23,12.76-1.14,22.28,9.75,30.09a20.67,20.67,0,0,1,8.61,13,24.64,24.64,0,0,1-2.24,16.92c-.67,1.34-2.07,2.57-1,5.18,4.91-6.55,9.16-12.77,7.74-20.74a34.6,34.6,0,0,0-12.06-20.7,15.43,15.43,0,0,1-5.67-11.2,34.05,34.05,0,0,1,3.94-19.29c2.29-4.21,2.35-8.62,2-13.11C248.61,160.14,247.72,159.59,243.34,159.41ZM204.82,204.7c-7.55,4.46-8.94,9.82-5.25,17.41s2.9,11.47-2.54,17.67a135.63,135.63,0,0,0-9.5,12.72,13.17,13.17,0,0,0-2.15,5.55c-.5,3.84-1.34,7.84.78,11.57l4.91-1.91c-1.34-6.87,1.78-12.38,5.29-17.74,1.55-2.36,3.37-4.54,4.95-6.88a91.37,91.37,0,0,0,5-8c1.85-3.5,2.74-7.65,1.28-11.14C205,217.7,202.61,211.69,204.82,204.7Zm-33,56.79c1.23-6.68,3.33-12.9,9-17.58l2.08,2.51c2.91-2.7,3.49-3.74,2.94-6.55a23.5,23.5,0,0,0-1.9-5.65c-1.93-4-4.07-8-2.6-12.88-1,.61-2,1.22-2.15,2a31.69,31.69,0,0,0-.87,7.84c.42,6.05-1,11.2-5.88,15.12a13.13,13.13,0,0,0-5.11,9.66C168.09,258,168.32,260.65,171.85,261.49Zm6.61-94.73c-1.81,2.76-3.05,4.85-1.88,8.16l10.48,3.22c2.62,2.54,5.95,5.79,9.28,9l.5-.21-4-8.93.8-.48,3.93,3.12c.71-2.62,0-4.4-1.79-5.55-3.91-2.47-7.85-4.91-11.93-7.09C182.38,167.24,180.47,167.21,178.46,166.76Zm9.06,79.16c9.73-8,9.5-18.63.1-27.37l-2.53,4.59C187,230.58,191.05,237.36,187.52,245.92Zm86.55-48.15c-3.11-8.24-3.44-16-3-23.76a18.68,18.68,0,0,0-.18-5c-.27-1.25-1.19-2.37-2.34-4.53-3.36,9.11-3.48,17-1.23,25.06C268.24,192.78,269.44,195.91,274.07,197.77ZM272.7,248.4c-3.71,2.24-4.68,5.51-5.35,8.91,1.89,4.48,3.87,8.71,9.34,9.41,3.67-.63,5.84-2.82,6-6.38s-1.78-5.91-5.63-7.42l-3.92,3.75,6.26,1.88c-2.15,3.27-2.42,3.34-6.91,1.87C268.8,256.56,272.66,252.65,272.7,248.4ZM255.87,265c-1.49,2.89-2.33,3.46-4.31,3.08a4.23,4.23,0,0,1-3.53-4.71c.25-1.72,1.33-3.32,1.95-5,.33-.91.48-1.88.85-3.42-6,3.78-8.08,9.82-5.45,13.86s8.13,4.67,13.1,1.55c1.76-4.94,0-8.85-4.08-9.11-1.61.4-2.46,1.32-2,3.3Zm20.54-96.16c-1.93,8.85-5.05,17,.09,26.22,1.3-9.07,6.35-16.48,3.78-25.35Zm11.85,40.7.9-.77c-1.15-1.48-2.3-2.94-3.43-4.43-3.37-4.4-4.76-9.29-2.13-14.39,2.72-5.28,2.35-10.78,2.29-16.36a94.42,94.42,0,0,0-4.25,11.52c-1.12,4-1.81,8.06-2.56,11.55C283.24,206.72,283.48,207,288.26,209.52Zm-57.12,49.81a11,11,0,0,0-7.86,5.52c-1.94,3.79-1,8,2.3,10.14,3.11,2,6.24,1,9.44-3.17-.11-1.45-.24-3.21-.4-5.18-2.21-.48-4-1.47-5.6,1.16l4.51,2.81-4,2.65-5.28-4.53Zm-45.41-9.27c-8,2.49-11.43,9-8.73,15.39,1.23,2.9,2.2,3.36,6.07,2.57C181.47,261.78,181.72,255.67,185.73,250.06Zm7.7-56.57c.28-5.34-4.74-11.2-11.55-13.36L177.45,182c-.17,5.09.34,5.38,7.18,4.5C188.05,188.08,188.5,193.6,193.43,193.49ZM285.15,196c.23,1.07.17,2.31.72,3.17a40,40,0,0,0,5.23,7.13c4.41,4.3,7.69,9,8.37,15.33a19.19,19.19,0,0,0,1.16,3.43,14.5,14.5,0,0,0,1.25-2.83c.84-5.6-.61-10.55-4.75-14.48S288.28,201,285.15,196Zm-33.23,41.24c3.77-8.44.09-17.67-8.34-21.93,1.94,3.61,4,6.76,5.35,10.21S250.81,232.77,251.92,237.27Zm-91.53,2c-5.66,4.14-7.42,9.88-4.8,14.43,3.32-.59,3.79-3.73,5.56-6.07C160.91,245,160.67,242.33,160.39,239.23Zm121.86,10.7c1.72-8.15,1.1-12.43-2.54-15.26a50.39,50.39,0,0,1,1.09,5.75,50.67,50.67,0,0,1-.43,6c-1.43-2-2.12-3-3-4.2-2,2.17-1.52,4.15-.76,6.25Zm-4.32-30.44c.62,6.44,4.69,11.24,7.49,16.64C285.94,229.23,284.08,223.4,277.93,219.49ZM156.79,236.18c-4.67,2.43-8.6,6.94-9.41,10.4-.43,1.84.17,3.16,2.11,4.55,1.09-2.69,2.08-5,3-7.38C153.47,241.2,156.88,240.1,156.79,236.18ZM261,246.05a21.93,21.93,0,0,0-.49,11.33C264.64,254.16,264.82,251.4,261,246.05Zm4-7.23c-2.18,3.66-1.76,5.28,1.92,8.63C268.71,244.12,267.46,241.64,265,238.82Z" transform="translate(-21.22 -11.22)"/><path d="M211.32,342.78h-5.58c-3.53-4.48-6.64-9.35-12-13-.95,4.8-1.16,8.78.6,13h-6.12c1.56-4.75.9-9.67.82-14.52s.95-9.95-1-14.84c3.85-2,7.92-1.14,12-.42,3.8.66,5.73,3.18,6.65,6.61s-.56,6.16-3.39,8.17c-.8.57-1.69,1-3.09,1.85,1.88,2.29,3.58,4.43,5.35,6.53S209.22,340.36,211.32,342.78ZM193.4,327.57c5.24.57,7.27-.32,8.84-3.54,1.34-2.75.46-5.19-1.21-7.38-1.8-2.36-4-2.74-7.63-1.41Z" transform="translate(-21.22 -11.22)"/><path d="M375.31,313.12h5.61c-1.46,6.88-1,13.65-.67,20.36.27,5.31,3.86,7.86,9.24,7.44,2.71-.22,5.23-1,7.05-3.11,1-5.78.75-20.74-.56-24.57h5.53c-.14,5-.54,10.09-.32,15.12.21,4.79-1.56,9.87,1.75,14.5h-5l-1.61-2.17a16.31,16.31,0,0,1-2.24.94c-2.84.7-5.77,2.08-8.54,1.84-6-.53-9.07-4.39-9.44-11-.24-4.31,0-8.65-.14-13C375.91,317.46,375.56,315.39,375.31,313.12Z" transform="translate(-21.22 -11.22)"/><path d="M60.91,313.09c1.24-.07,2.22-.17,3.2-.16a12.23,12.23,0,0,1,1.77.27v12.43H84.44V313.12h4.8c-.49,9.71-.37,19.4-.1,29.65l-4.47.2V328.5H66c-1.5,4.78-.78,9.31.43,14.19H61.17A112.13,112.13,0,0,0,60.91,313.09Z" transform="translate(-21.22 -11.22)"/><path d="M429.8,327.35c6,5.44,6.3,7,2.57,13.67-4.37,3.07-9.4,1.85-14.49,1.91V313c4.88.61,10.27-1.89,14.62,2.54C434.86,321.47,434.52,322.87,429.8,327.35Zm-7.29,1.26v12.16c3.29,1.22,5.51.21,7.18-2.19a6.83,6.83,0,0,0,0-7.91C427.86,328.37,425.51,327.66,422.51,328.61Zm.09-2c6.55-1,8.25-3.08,7.3-7.81-.7-3.51-2.89-4.8-7.3-4Z" transform="translate(-21.22 -11.22)"/><path d="M162.74,312c6.09,10.45,6.54,21.82,13.24,30.74h-6.54c-.39-2.33-.81-4.78-1.26-7.5H156a6,6,0,0,0-.51,7.6h-5.41Zm4,19.93c-1.54-4.14-2.86-7.71-4.18-11.27h-1.06c-1.46,3.53-2.93,7.06-4.67,11.28Z" transform="translate(-21.22 -11.22)"/><path d="M122.4,313.15v3.43c-4.79-1.9-6.16-2-12.34-1.28-1.23,3.37-1.34,5.2-.63,10.81,3.72,1.78,7.33.37,11.28-.91.1,1.74.19,3.16.31,5.38-3.76-2.84-7.41-2.72-11.39-2.09-1.1,4-.66,7.84-.27,12.05,4.68.62,9.15,1.47,13.65-1.6l-.43,4.06h-17.9a222,222,0,0,0-.21-29.85Z" transform="translate(-21.22 -11.22)"/><path d="M330.05,339.25c-.53,1.14-1.06,2.28-1.78,3.81-4.51,0-9,.48-13.37-.1-8.83-1.17-13.23-8.5-12.5-16.4.86-9.2,7.79-14.86,17.1-14.52a41,41,0,0,1,7.36,1.18c2,.45,3.05,1.77,2.74,4.55-7.65-4.86-15.09-6.47-20.78,2-3.91,5.83-2.33,13.56,3,18.62C316.66,343,322.36,343.12,330.05,339.25Z" transform="translate(-21.22 -11.22)"/><path d="M48.72,312.72l-.86,4.78c-3-3.34-6.48-2.5-10.19-2.23a19.37,19.37,0,0,0-.61,3.29c-.07,6.16-.15,12.33,0,18.49,0,1.83.8,3.64,1.29,5.68H31.17c.57-1.16,1.63-2.35,1.65-3.55.16-7.8.08-15.6.08-23.26-5.52-1.48-7.12-1.29-11.14,1.26a7.11,7.11,0,0,1-.54-1.87,14.31,14.31,0,0,1,.44-2.59Z" transform="translate(-21.22 -11.22)"/><path d="M234.57,342.9h-7.44c.69-1.39,1.79-2.6,1.81-3.83.16-7.78.08-15.56.08-23.57-4.08-.52-7.62-1.55-10.9,2.14v-4.87h26.5v4a36.39,36.39,0,0,0-5.32-1.64,39.31,39.31,0,0,0-5.68-.06,42.33,42.33,0,0,0-.48,4.24c-.06,5.82-.16,11.65,0,17.47C233.22,338.72,234,340.67,234.57,342.9Z" transform="translate(-21.22 -11.22)"/><path d="M257.14,342.48V338c4,3.85,8,5.22,13,1.84l1-5.76c-2.2-1.37-4.19-2.75-6.31-3.9-1.31-.7-2.87-.92-4.2-1.57-3.51-1.71-5-4.52-4.7-8.58.23-3.61,2.31-5.8,5.47-7a13.42,13.42,0,0,1,11.42.51c.07.77.15,1.67.28,3.18-5-2.81-9.56-4.7-13.49.45-.56,4.58,0,5.94,3.54,7.84a42.39,42.39,0,0,0,4.57,2c5.72,2.32,7.59,5.55,6.17,10.78-1,3.81-5.59,6.5-10.38,6C261.55,343.53,259.62,343,257.14,342.48Z" transform="translate(-21.22 -11.22)"/><path d="M363.09,338.28c-.31,1.93-.51,3.14-.74,4.54h-18.6c1.8-5.84,1.4-23.19-.64-29.69h6c-1.66,9.21-1.12,18.19-.75,27C355,341.76,358.21,341.41,363.09,338.28Z" transform="translate(-21.22 -11.22)"/><path d="M296.34,389.14c1.64-4.44-.29-8.45,1.74-12.1,2.17,2.73,2.53,11.44.73,17.22-5-2.74-6.81-8.41-11.12-11.74-2,3.7.81,8-2.07,11.48-1.81-3.1-2.13-10.95-.78-16.67,3.69-.38,4.13,3.27,6,5A76.89,76.89,0,0,1,296.34,389.14Z" transform="translate(-21.22 -11.22)"/><path d="M206.82,376.46c3.71,4.51,7,8.54,10.74,13,1.21-4.34-.5-8.56,1.34-12.55,2.29,2.71,2.71,11.1,1,17.27-5.47-2.47-7-8.63-11.77-12-2.14,3.56.22,7.79-1.76,11.42C204.45,389.78,204.55,380.36,206.82,376.46Z" transform="translate(-21.22 -11.22)"/><path d="M176.94,385.69c-.06-5.44,3.49-8.84,9.2-8.82,5.38,0,8.9,3.4,8.93,8.59a9,9,0,0,1-9.23,9.14A8.83,8.83,0,0,1,176.94,385.69Zm8.85-6.66c-4.12.11-6.93,3-6.69,6.93.22,3.7,3.08,6.15,7.05,6.06a6.68,6.68,0,0,0,6.76-6.48C193,381.69,189.92,378.92,185.79,379Z" transform="translate(-21.22 -11.22)"/><path d="M232,394.05V377.76a18,18,0,0,1,10.37-.39c3.82.87,6.07,5,5.62,9.4a7.84,7.84,0,0,1-7,7.22C238,394.25,235.05,394.05,232,394.05Zm2.29-14.59c-.2,4.37-.89,8.26.37,12,7.82,1,9.33.16,11.23-6.2-.45-1.26-1-2.8-1.41-4C241.32,378.46,238.07,379,234.27,379.46Z" transform="translate(-21.22 -11.22)"/><path d="M265.66,394.79c-7.08-1.63-10-4.59-9.7-9.56a8.58,8.58,0,0,1,8.32-8.34c5.17-.3,8.83,2.19,9.73,6.61C275.11,388.83,272.56,392.37,265.66,394.79ZM268,379.34c-5.83-.57-8.76,1-9.66,5.12a6,6,0,0,0,3.95,7.11c3.46,1.33,7.06.26,8.7-2.58C273,385.52,272.08,382.51,268,379.34Z" transform="translate(-21.22 -11.22)"/><path d="M157.29,393.53V376.77c2.76,2.54,1.58,5.09,1.78,7.28s.05,4.61.05,7.53l10.95.66C166.86,394.4,164.16,394.61,157.29,393.53Z" transform="translate(-21.22 -11.22)"/><path d="M348,128.37c-.33,2.25-.6,4.08-1,7-2.65-5.4-6.45-6.66-10.87-6.47-3.14.14-6.49-.12-9.34.92-8.07,2.92-9.22,11.11-6.83,17.88,2.21,6.26,7.21,9.31,13.57,10.27a37.82,37.82,0,0,0,4,.12c4.27.19,8-.66,9.69-5.5l.85.55c-.47,1.93-.94,3.86-1.52,6.27-9.86,2.67-19.19,2.31-27.43-4.18-6.95-5.48-6.58-18.22.38-23.91A18.06,18.06,0,0,1,330.86,127c3.66,0,7.33-.08,11,.13A43.53,43.53,0,0,1,348,128.37Z" transform="translate(-21.22 -11.22)"/><path d="M212.25,38.64c1.41,1,2.49,1.79,3.51,2.61,3.92,3.17,5.23,6.77,3.84,10.42-1.32,3.48-5.71,5.75-10.34,5.33-6.4-.58-9.47-6.36-6.31-12a44.81,44.81,0,0,1,2.67-3.74c-2.43-3-6.37-4.81-6.12-9.64,2-6,6.74-8.48,13-6.57a6.21,6.21,0,0,1,3.28,9.33A44,44,0,0,1,212.25,38.64Zm1.37,16.12c4.73-5.29,2.48-9.77-6.15-12.07L205,48.05c1,2.28,2,4.48,3,6.71Zm-9.54-27.17-1.24,4.93,6.33,5.23c5.46-4.82,5.12-8.42-.79-11.6Z" transform="translate(-21.22 -11.22)"/><path d="M131.77,127.56c7.36,10.89,8.82,24,17.4,33.15H142l-5.25-12.38H126c-1.62,4-4.35,7.46-3.15,12.35h-8.11l3.45-2.55C123.19,148.27,126.28,137.74,131.77,127.56Zm3.78,18.17c-1.26-3.38-2.27-6.16-3.33-8.91a4.68,4.68,0,0,0-.89-1.1,16.54,16.54,0,0,0-3.65,10Z" transform="translate(-21.22 -11.22)"/><path d="M252.05,24.34c-6.58,1.17-11.5,3.66-14,10.22,1.21-.13,2-.25,2.74-.29,5.61-.32,9.26,2.61,10.06,8.06a12.21,12.21,0,0,1-6.41,12,9.58,9.58,0,0,1-13.16-6.2c-4.28-14.94,7.18-25.2,19.55-24.7C251,23.41,251.12,23.6,252.05,24.34Zm-9.66,28.44c4.61-4.84,4.88-9.45.83-15.5l-4.11-1.14c-5.5,4-5.73,11.12-.66,16.64Z" transform="translate(-21.22 -11.22)"/><path d="M259.38,53l5.94,5.56c4.86.63,6.85-.26,8.18-3.62,1.61-4.07.49-6.66-5-11l7.66-1.6c.84-1.34,1.93-3.09,3.13-5l-3.68-4.49-7.82,1a7.73,7.73,0,0,1,7.72-3.86c3.77.48,6.6,2.71,7.35,5.8s-.24,4.64-5.55,8.7a6.12,6.12,0,0,0,.5,1.72c4.21,6.75-2,15-11,14.45-2.36-.13-4.77-1.39-6.93-2.55C258.1,57.28,257.21,55.65,259.38,53Z" transform="translate(-21.22 -11.22)"/><path d="M193.47,61.76l-9.07,3.65L186,61.2,177.08,39l-4.51,1.39,6.5-7.78c2.12,5,4,9.28,5.84,13.65,1.53,3.69,2.94,7.42,4.4,11.13C190.06,59.33,191,61.05,193.47,61.76Z" transform="translate(-21.22 -11.22)"/><path d="M214.58,139.39c-2,.55-3.36,1.44-4.27,1.1-5.89-2.24-10.68.5-15.72,3.11-.49,1.22-1,2.55-1.71,4.21-3.43-2.5-3.27-6.63-5.58-9.82L182,142v-5.49c-1.13-3-5.06-4.65-3.59-8.69a24.73,24.73,0,0,0,4.84-2c5.67-3.75,11.49-2.1,17.22-.54a10.54,10.54,0,0,1,4.47,3.05C208,131.7,211,135.25,214.58,139.39Zm-24.23-7.46c3.42,1.51,6.38,2.93,10,2.83C197.37,131,195.64,130.45,190.35,131.93Z" transform="translate(-21.22 -11.22)"/><path d="M205.7,162.29c6.31,3.9,8.78,8.58,7.54,14.56-.55-.66-1.16-1.06-1.23-1.53-.35-2.64-1.8-4.48-3.74-6.22S204.56,165.41,205.7,162.29Z" transform="translate(-21.22 -11.22)"/><path d="M210.31,251.08c4.86-7,5.72-14,5.7-21.36,3,2.28,4.38,8.46,2.46,13.06-1.25,3-3.46,5.58-5.35,8.27C212.92,251.33,212,251.08,210.31,251.08Z" transform="translate(-21.22 -11.22)"/><path d="M210.59,252.6c-1.3,4.66-.67,9.78-3,14.53C203.61,263.25,204.47,259.13,210.59,252.6Z" transform="translate(-21.22 -11.22)"/><path d="M226.07,250.73l4.61-6.6c1.19-5.36-.16-10.51-3.23-15.33-1.78-2.81-3.59-5.6-5.26-8.47a10.2,10.2,0,0,1-1.42-7.21c.76.4,1.33.51,1.55.85,3.19,5,6.45,10.05,9.45,15.22A21.52,21.52,0,0,1,235.05,241C234.82,246.23,231.87,249.7,226.07,250.73Z" transform="translate(-21.22 -11.22)"/></g></g></svg>