<svg xmlns="http://www.w3.org/2000/svg" viewBox="0 0 271.93 148.35"><title>RedR</title><g id="Layer_2" data-name="Layer 2"><g id="Layer_1-2" data-name="Layer 1"><path d="M182.54,150.14c.84.05,1.29-.69,1.87-1.07,1.9-1.26,3.65-2.74,5.55-4a4.72,4.72,0,0,1,4.8-.67,9.19,9.19,0,0,1,0,1.67,4,4,0,0,1-.8,2.18c-1.06,1.15-2.07,2.35-3.33,3.79a8.24,8.24,0,0,0,1-.37c.49-.26,1-.55,1.45-.83s.37-.8,1.11-.8c.55,0,1.18-.65,1.64-1.15a18.42,18.42,0,0,1,3.66-2.48,5,5,0,0,1,2-.32c.29.72.57,1.33.78,2,.1.26.21.67.09.84-.53.71-.17,1.57-.51,2.31-.7,1.51-1.36,3-2,4.55-.72.18-.87.95-1.35,1.39s-.78,1.18-1.31,1.59c-1.6,1.22-3.07,2.72-5.25,2.91-2,1.16-4.22.61-6.35.7a4.12,4.12,0,0,1-1.29-.34c-1.45-.44-3-.41-4.43-1a34.83,34.83,0,0,0-4.12-1.35c-.79-.22-1.6-.38-2.74-.64.9,1.39.7,2.75,1.32,3.9.07.14,0,.35,0,.53a40.9,40.9,0,0,1-.07,6.46,66.5,66.5,0,0,0-.29,6.92,12.61,12.61,0,0,1-1-.82c-.46.63-.88,1.25-1.34,1.84,0,.06-.23,0-.44,0l-.14-1.33.25-.27-1.4-.87c.72-1.33.44-2.75.8-4.08s.55-2.87,1-4.27a4.18,4.18,0,0,0,0-2.4c-.28.32-.48.44-.53.61q-1.09,3.66-2.54,7.2a6.34,6.34,0,0,0-.7,3.3c0,.1.1.2.07.14l1.5.59c-1,.81,0,1.18,0,1.7l1,.12v1.59c1.3.78,1.9.41,2.25-1.22,1.32-.28,1.32-.28,1.35-1.84.75,0,.05.85.56,1.05a6.76,6.76,0,0,0,.9,2.68c.85,1.57,1.23,3.39,2.52,4.73a7.45,7.45,0,0,1,.85,1.47c.9-.3.72-1.27.88-1.92A17.2,17.2,0,0,1,181,180.9a4.84,4.84,0,0,1,1.19-1.83c.58-.45.88-1.14,1.46-1.6s1.12-1.05,1.69-1.57a2.09,2.09,0,0,1,.45-.22,25.2,25.2,0,0,1,4-1.67,5.88,5.88,0,0,1,1.57-.12c.5,0,.88-.62,1.55-.07.4.32,1.27.05,1.93.06s1.19-.14,1.65.36a16.8,16.8,0,0,1,4.43,1A7.6,7.6,0,0,1,203,176.4a12.25,12.25,0,0,1,3.69,3.16,31.8,31.8,0,0,1,2.13,4.15,14.55,14.55,0,0,1,.65,1.89,7.38,7.38,0,0,1,.47,2.52c0,1.39-.33,2.82.29,4.18.1.22-.29.61-.31.92-.05.78,0,1.56,0,2.34a19.45,19.45,0,0,1-1.23,6.33,19.63,19.63,0,0,1-1.64,4.36c-.62,1-1.19,2-1.76,3.05a18.15,18.15,0,0,0-1.87,3.54c-.11.36-.5.63-.69,1-1.13,2-2.31,3.94-3.32,6-.64,1.3-1.51,2.49-2.27,3.74a3.44,3.44,0,0,1-.45.7c.07-1-.39-2,.22-3,.34-.56.08-1.34.23-2,.39-1.76,1.17-3.38,1.68-5.09a39.69,39.69,0,0,1,2.86-7.26c.74-1.39.87-3,1.72-4.34.24-.39-.05-1.07.07-1.59s.65-.88,0-1.32a5.57,5.57,0,0,0,.36-2.91,4.14,4.14,0,0,0-.34-2c-.53-1-.49-2.27-1.06-3.33a6.47,6.47,0,0,0-1.2-1.85,3.53,3.53,0,0,1-.63-.81c-.51-.84-.5-.85-1.94-1.77a8.13,8.13,0,0,0,.5,1,18.84,18.84,0,0,1,1.49,3.88,12,12,0,0,1,.63,5.12c0,.66.84,1.13.18,2-.32.41-.13,1.25-.15,1.89s0,1.45,0,2.16a3.82,3.82,0,0,1-.5,1,16.31,16.31,0,0,1-1-2.66c-.1-.85-.85-1.6-.68-2.59,0-.12-.2-.27-.26-.42a12.38,12.38,0,0,1-1.18-3.3c0-.18-.31-.34-.58-.63a5.3,5.3,0,0,0-.07,2.43,4.78,4.78,0,0,1,0,3.17,5.2,5.2,0,0,0-.06.69,10.54,10.54,0,0,1-.45,2,6.26,6.26,0,0,1-1-2.51c0-.6-.57-1.18-.87-1.78a2.78,2.78,0,0,1-.53-1.59.72.72,0,0,0-.11-.48c-1.22-1.38-1.88-3.17-3.29-4.41-.46-.4-.76-1-1.2-1.41a11.8,11.8,0,0,0-1.34-1.09c-.21-.16-.45-.29-.9-.56.06.44,0,.71.12.83a10.13,10.13,0,0,1,2.47,4.21c.29,1,1.1,1.83,1.09,3,.5.34.3.87.28,1.31a10.71,10.71,0,0,0,.59,3.18,2,2,0,0,1,0,1.31,1.32,1.32,0,0,0-.13,1.32c.73.93,0,1.59-.24,2.35-.28-1.34-.64-2.66-1-3.94-.41-1.54-.54-3.2-1.43-4.62-.58-.94-.8-2.06-1.3-3.06-.38-.77-1.05-1.25-1.36-2,0,.83-.44,1.66.22,2.37-.4.82.81,1.5.11,2.46-.41.57-.3,1.51-.71,2.36-.16-.3-.33-.61-.48-.92-.24-.49-.48-1-.72-1.5a20.09,20.09,0,0,0-1.43-3c-.34-.47-.6-1-1.45-1.11,0,1.52,0,3,0,4.48a2,2,0,0,1-.85,1.87l-1.44-4.41-3.7.37c-1,2.84-.94,5.84-.79,9.1.82-.49,1.5-.85,2.13-1.29s.81-1.16,1.81-1a2.25,2.25,0,0,1-.84,1.6c-.63.34-1,.95-1.58,1.3s-1.23.64-1.46,1.15a7.92,7.92,0,0,0-.47,2.5,13,13,0,0,0,0,2.16,2.23,2.23,0,0,0,.29.76c.89.22,1.61.37,2.31.57a6.29,6.29,0,0,0,2.2.38c.3,0,.63.28,1.19.55-3.68.31-4.74.23-6.87-.52-1.77,1.1-3.82,1.1-5.75,1.43l-.67-.67c1.87-1,4-1.12,5.83-1.92-.1-2.62.62-5.06.39-7.55,0-.47.38-1,.31-1.46a50.22,50.22,0,0,0-1.06-6.57c-.06-.21-.3-.36-.44-.52-.72-.29-1.57.26-2.2-.39-.21.39-.93.05-1,.74a1.85,1.85,0,0,1-.43,1.23c-1.16.86-1.19,2.3-1.91,3.37-.35.51-.06,1.08-.42,1.64s-.14,1.42-.42,2.15a6.5,6.5,0,0,0,0,2,8.53,8.53,0,0,0,3.31-1.81,20.94,20.94,0,0,0,2.31-2.84,2.88,2.88,0,0,1-.53,2.67,9.3,9.3,0,0,1-2.8,2.75,4,4,0,0,1-2.54.58c-1.35,2-1.18,4.41-2,6.46.54,1.13,1.56,1.21,2.47,1.49.74.23,1.48.43,2.28.66-.26.66-.63.9-1.12.77-1.39-.37-2.92-.37-4.09-1.4l-.13.07a8.16,8.16,0,0,1-5.46,1.33c-.08-.7.28-.91.84-1.08,1-.29,1.87-.75,2.84-1a1.77,1.77,0,0,0,1.29-1.44c.39-1.23.33-2.63.83-3.8s-.17-2.59.89-3.6c.13-.12.13-.43.12-.65a10.83,10.83,0,0,1,.72-4.21,1.56,1.56,0,0,0,0-.53V195c-2.1-.94-4.16-1.78-6.14-2.77a11.36,11.36,0,0,1-4.75-4.16,2.82,2.82,0,0,0-1.06-1.22c-.58-.28-.33-1-.75-1.45-1-1.17-1.14-2.77-1.33-4.28-.08-.65,0-1.32,0-2a5.78,5.78,0,0,1,.74-3.11,16.66,16.66,0,0,1,1.57-2.76c.35-.48.69-1.15,1.47-1.18,2-1.69,4.6-1.94,6.78-3.17,1.43.19,2.21-1,3.32-1.54.68-.3.71-1.29,1.51-1.49,0-.75,1-.95.86-1.83-.06-.29.39-.66.53-1a7.29,7.29,0,0,0,.23-1.31,19.63,19.63,0,0,1-1.36,2.07c-.72.84-.79.82-2.46.77-.59.71-1.43-.4-2.09.29-.16.18-.64.11-.68-.47s-.89.15-1.09-.56c-.09-.34-.67-.52-.94-.84a9.07,9.07,0,0,1-.72-1.2c.31-.3.45-.68-.11-1l1-1a5.75,5.75,0,0,0,4.41.59c.91-.3,2.1-.12,2.6-1.32l-2.56-1.65h2.93c1-1.81.9-2.52-.4-3.85L165.11,152a5.85,5.85,0,0,1,4.28,2.54c.56-.75,1.08-1.46,1.61-2.16a5.12,5.12,0,0,1,1.11-1.32c1.46-.89,2.68-2.1,4.1-3.06.66.18.42-.68.74-.7.51,0,.71-.41,1-.68a5.56,5.56,0,0,1,4.49-1.87l1.58,1.57a25,25,0,0,1-1.27,2.66,2.38,2.38,0,0,0-.2,1.19l0-.06-.3.25.12.12A3.55,3.55,0,0,0,182.54,150.14Zm-13.34,15.1.32-1.82c-.8,0-1.06.59-1.4,1-.65.84-1,1.86-1.7,2.71-1.28,1.56-3.16,2.19-4.73,3.3v1.21c.44.12,1.17.41,1.22.32.39-.68,1.27.19,1.65-.64.23-.5.94-.76,1.34-1.22.78-.88,1.48-1.81,2.22-2.73a1.82,1.82,0,0,1-.35,1.3,37.62,37.62,0,0,1-2.5,2.88c-.77.75-1.56,1.73-1,3h1.76c-.37.56-1.26.93-.69,1.76a1.54,1.54,0,0,0,1.43.39,1.28,1.28,0,0,0,.58-1.33c-.11-.75-.62-.9-1.44-.83a19.61,19.61,0,0,0,2-2.92,31.1,31.1,0,0,0,1.49-3.29c.42-1.34,1.29-2.67.72-4.29Zm3.61,10.26c-.2-2,.63-4,.35-6.09a.72.72,0,0,1,0-.36c.77-1.46.14-3,.39-4.54-.33,0-.6,0-.64.09a2.84,2.84,0,0,0-.45,1.24,6.73,6.73,0,0,1-.39,2.19c-.19.76-.42,1.51-.56,2.28-.33,1.73-1.15,3.38-.83,5.23C171.61,176.24,171.8,176.24,172.81,175.5ZM159,170.32a11.65,11.65,0,0,1,.32,1.8,9.47,9.47,0,0,1-.26,1.55c.33.33.63.62.93.9,0,0,.08,0,.13-.07,1.21-.7,1.21-.7,1-2l-.5-.12c.29-.67.9-1.2.61-2Zm12.22-13.66h-.88l-.18,1.18c-.27-.4-.52-.61-.57-.87s.16-.44.29-.73c-1,.42-1,.42-1,2.2.32.1.68.22,1,.32a3.93,3.93,0,0,0,1.27.28c.32,0,.61-.36.91-.56Zm-7.88,17.94c.22-.78.85-1.4.17-2.28a6.39,6.39,0,0,1-1,.47c-.6.16-1,.48-.83,1.1s.64.77,1.22.71Zm-.92.86c-.12.48-.27,1.17.41,1.55.86.48,1.2-.38,1.61-.75v-1.34c-.37.06-.65.08-.92.15S162.89,175.29,162.42,175.46Zm5.41,3.83a1.77,1.77,0,0,0,.62-1.82c-.09-.32-.47-.55-.72-.81-.8.63-1.32,1.22-1,2.16Z" transform="translate(-43.56 -144.03)"/><path d="M214.12,291.91h-2.78l.36-.71c-.89.28-1.65.55-2.44.75-3.2.82-4,.49-5.66-1.42a5,5,0,0,1-4.8,1.71l-1.47-1.63c-1.27.9-2.53,2.25-4.7,1.56-.29-.31-.74-.79-1.18-1.24a8.46,8.46,0,0,1-1.82,1.25,10.48,10.48,0,0,1-2.4.19l-.63-.92a4.42,4.42,0,0,1-2.8.9c-1.17,0-1.62-.79-2.24-1.56a17.52,17.52,0,0,1-2.24,1.23,10.31,10.31,0,0,1-3.65.27,2.75,2.75,0,0,1-2.14-2.37c0-.59,0-1.19,0-1.83l-2.46-.57-1.1-1.1v-2c-.28,0-.65,0-.65.08-.18,1.31-1.17,2.29-1.42,3.56a10.38,10.38,0,0,1-1.42,3.84h-2.18c-.65-1,.56-1.72.58-2.65s.59-1.67.74-2.67c-.31.14-.53.25-.76.34s-.52.18-.78.27a2,2,0,0,0-1.4,1.56c-.33,1.26-1.45,2-2.43,2.87a3.93,3.93,0,0,1-3,.7,3,3,0,0,1-2-1.17c-.12-.11-.26-.2-.38-.3-2.77,2-4,1.85-5.41.63-.38-2.53.51-4.81,1.44-7.3l-.74-.33c-.41-.2-1.29.45-1.48,1.06-.48,1.54-1,3.08-1.45,4.62-.25.79-.56,1.56-.86,2.39h-2.74c.39-1.3.75-2.56,1.16-3.8a35.39,35.39,0,0,0,1.21-3.45c.27-1.28.82-2.44,1.15-3.67s.85-2.45,1.1-3.67a19.3,19.3,0,0,1,1.88-5c.88-1.71.9-1.7,2.37-2.37a2.59,2.59,0,0,1,3.73,2.16,6.28,6.28,0,0,1-1.6,4.37,23.22,23.22,0,0,1-3.31,2.48c-1.13.91-1.37,1.12-1.53,2.89,1.23-.65,2.44-1.31,3.84-.56.5,2.24-.36,4.35-1,6.44a13.26,13.26,0,0,0-.32,2c1.22.26,1.83-.48,2.56-1.2-.38-1.92.93-3.34,1.7-4.95a5.16,5.16,0,0,1,2.93-2.42c.44-.19.83-.6,1.42-.25s1.53.41,1.87,1.34a6.12,6.12,0,0,1,.68,3.12,4.6,4.6,0,0,0,3.11-1.73l.57-2.14c1,.13,2-.2,3,.28l2-1,1.4.8c-.11.64.34,1.35-.35,1.92-.37.31-.63.27-1.58-.13-.39.75-.39.75-.14,2l2.17.95c.63-1,.66-2.21,1.69-2.81.64-1.83,2.44-2.06,3.9-2.68.9-.39,2.5.83,2.58,1.86a3.49,3.49,0,0,1-.93,2.85,9.24,9.24,0,0,1-2.89,1.72,11.14,11.14,0,0,1-1.5.43v1.62a2.32,2.32,0,0,0,3.16.35c1.89-1.06,1.93-1,2.18-3.19a10.9,10.9,0,0,1,1.5-2.82,8.45,8.45,0,0,1,2.46-2.31,2.65,2.65,0,0,1,2.81-.3c.08-.1.41-.33.4-.54a6.5,6.5,0,0,1,.8-2.75c.19-.47,0-.93.28-1.39a7.45,7.45,0,0,0,.6-1.72c.17-.53.33-1.06.51-1.59a5,5,0,0,0,.35-.75c.13-.79.17-1.76.83-2.13a5.59,5.59,0,0,1,2.29-.23,2.57,2.57,0,0,1,0,1.53,78.75,78.75,0,0,1-2.7,8.07c0,1.23-.73,2.24-1,3.35s-.7,2.13-.93,3.23-.6,2-.92,3.05c.84.83,1.44.8,2.13-.08a8.16,8.16,0,0,0,1.37-2.85,27.43,27.43,0,0,1,1.13-3.5,3.32,3.32,0,0,0,0-1.15h3.15c-.54,1.85-1.34,3.62-1.72,5.52a3.44,3.44,0,0,1-.53,1.21.81.81,0,0,0,.14,1.24.88.88,0,0,0,1.23,0c1.69-1.21,1.76-1.21,2.38-3.13a23.28,23.28,0,0,1,1.45-4.44c.15-.27,0-.69,0-1.17h-1.86c.32-.51.56-.87.78-1.25.35-.61.34-.62,1.25-.54a.78.78,0,0,0,.89-.67c.18-1.4,1.13-2.58,1.12-4,0-.24.32-.47.51-.73.89.23,1.92-.39,2.57.41-.26,1.74-1.34,3.16-1.3,5a2.43,2.43,0,0,1,.68-.13c.34,0,.66.15,1,.19a8.35,8.35,0,0,0,1,.06c-.36.7-.65,1.24-.94,1.79H203c-.73,2-1.49,4-2.13,6a19.47,19.47,0,0,0-.45,2.82,2,2,0,0,0,2.2-.4c.47-.38,1.07-1,1-1.5-.06-1.49.77-2.59,1.41-3.76.75-1.38,1.72-2.6,3.46-2.82.62-1,1.24.39,1.86,0,.33.46,1,.67.89,1.43.87,1.51.18,2.61-.91,3.6h-.22c-1.37-.1-1.89-1.12-1.14-2.24.16-.23.32-.46.47-.7,0,0,0-.11,0-.16-1.72.74-2.16,1.33-2.86,3.37a2.76,2.76,0,0,0,0,2.59c.46.73,1.6,1.39,2.3,1.08a20.66,20.66,0,0,0,2.63-1.49c1.33-.85,1.59-2.32,1.88-3.7a12.9,12.9,0,0,1,.39-1.29c.5-1.47.94-3,1.46-4.44.65-1.83,1.06-3.74,1.72-5.57.32-.87,1-1.49,1.23-2.39a2.22,2.22,0,0,1,1.45-1.12c.87-.21,1.68-.9,2.74-.18a3,3,0,0,1,1.49,2.32,5.55,5.55,0,0,1-1.49,4.06,9.51,9.51,0,0,1-3.16,2.34c-.36.2-1,0-1.16.8s-.72,1.48-.56,2.41c.52-1.12,1.77-.42,2.47-1.17l1.82,1.3c-.44,2.65-1.74,5-1.94,7.69,1.67.39,2.28-1.19,3.55-1.91l.14,1.79c-.55.55-1.08,1.05-1.57,1.57a2.93,2.93,0,0,1-1.86,1.14,3.23,3.23,0,0,1-3.08-.9v-2.82c0-.12-.05-.28,0-.36a3.84,3.84,0,0,0,.75-2,7.12,7.12,0,0,1,.69-1.86c-.9-.85-1.16-.88-1.8-.09a2.8,2.8,0,0,0-.7,1.31c-.16,1.48-.93,2.76-1.23,4.18A20.72,20.72,0,0,1,214.12,291.91Zm-29.64-1.84h1.69c.15-.41.33-.87.47-1.34s.25-1,.39-1.45.41-.63.35-1.13.4-.82.52-1.26a10.77,10.77,0,0,0,.23-1.56.87.87,0,0,0-1.26-.22,9.16,9.16,0,0,0-1,.64,3.26,3.26,0,0,0-.83.91,6.91,6.91,0,0,0-.69,1.69c-.22,1,.16,2-.28,3C184,289.49,184.29,289.75,184.48,290.07Zm-25.76-5.37c-1.16.76-1,2-1.36,2.95a2.25,2.25,0,0,0,.46,2.11c1.84.37,2.23-1,2.81-2.31C159.49,286.89,158.62,286.13,158.72,284.7Zm59.66-7.35c2.31-.75,3.11-2.38,3.73-4.15a.8.8,0,0,0-.53-1,1.06,1.06,0,0,0-.94.21,3.66,3.66,0,0,0-.88,1.22C219.29,274.75,218.91,275.9,218.38,277.35Zm-64.44-4.86c-.3.07-.7.05-.92.23a1.82,1.82,0,0,0-.78,1.11,17.77,17.77,0,0,1-1,2.71c1.12-.3,1.63-1.23,2.28-1.9A1.89,1.89,0,0,0,153.94,272.49Zm22.59,13.25c.53,0,1,.19,1.15,0,.73-.69,2-1,1.92-2.39h-1.37ZM161,283.2l-1.24.51c.77,1.31.77,1.31,1.75,1.32A5.43,5.43,0,0,0,161,283.2Z" transform="translate(-43.56 -144.03)"/><path d="M154.44,237.48c0,.55,0,1,0,1.51a9.07,9.07,0,0,0,.27,2.57,2.32,2.32,0,0,1-.25,2.37c-.18.2,0,.7,0,1l-3.64,3.64c1.54,3.38,2.08,7.22,4.45,10.21a2.29,2.29,0,0,1-.18.28s-.1.09-.14.09h-6.38c-.5-1.59-1-3.14-1.48-4.67a25.69,25.69,0,0,1-1.22-3.62c-.18-1.1-1-1.17-1.66-1.4a4.94,4.94,0,0,0-1.5,0l-.83,1.24c.62.44-.12.84-.05,1.31a10.67,10.67,0,0,1,0,2.33c-.05.68.29,1.3.2,2s.29,1.41.19,2.15c0,.17.2.38.35.64H136c.7-2.38.34-4.8.39-7.19s0-4.92,0-7.37,0-4.92,0-7.38c0-.9-.13-1.8-.21-2.82h1.13c4.14,0,8.27.06,12.41,0a4.3,4.3,0,0,1,4,2.26A10.55,10.55,0,0,0,154.44,237.48Zm-12.12,1.2a4.35,4.35,0,0,0-.41,2.76,1.6,1.6,0,0,0,.2.39c-.65.35.16.83-.06,1.1-.43.54-.2.94.11,1.37-.68.72.12.8.45.83.83.09,1.67,0,2.51,0a4.19,4.19,0,0,1,.94.24c.83-.64,2.12-.71,2.65-2s.21-2.4.35-3.52c-1.77-1.2-1.88-1.24-3.59-1.24Z" transform="translate(-43.56 -144.03)"/><path d="M55.88,259.14A36.59,36.59,0,0,0,54.29,254c-.36-1-.67-2-.93-3s-1-1.26-1.81-1.45a6.05,6.05,0,0,0-1.36,0l-.86,1.27c.16,2.51-.47,5.49.65,8.41H43.63a2.08,2.08,0,0,1,.14-1.48,2.41,2.41,0,0,0,.14-1.19q0-10.06,0-20.13a13.13,13.13,0,0,0-.32-2c.3,0,.64,0,1,0,1.67,0,3.35.06,5,0,1-.05,2.13.38,3.1-.3.9.66,1.93.23,2.89.3s2.16,0,3.22,0c.7.43,1.16,1.11,1.86,1.57a2.74,2.74,0,0,1,1.27,2.31,8.85,8.85,0,0,0,.29,3.46,1.9,1.9,0,0,1-.25,1.85c-.23.3,0,.92,0,1.53l-3.61,3.61c.6,1.77,1.3,3.51,1.88,5.31a42.21,42.21,0,0,0,2.47,5.14Zm-6.24-14H53c.37.62.81.08,1.12,0a3.59,3.59,0,0,0,1.64-1,3.32,3.32,0,0,0,.78-2.37,12,12,0,0,1,0-1.79c-1.82-1.74-3.94-1.17-5.94-1.28a1.23,1.23,0,0,0-1.26.58c0,1.55,0,3.16,0,4.78A5.18,5.18,0,0,0,49.64,245.16Z" transform="translate(-43.56 -144.03)"/><path d="M299.89,259.15h-6.18c.2-.65-.19-1.28.32-1.89.18-.22.09-.68.09-1,0-6.54,0-13.08,0-19.62a15.49,15.49,0,0,0-.35-2.25h3.11c1,0,2.05,0,3.06,0s2.1.3,3.07-.3c.92.64,2,.22,2.94.29s2,0,3,0c.61.49,1.23.93,1.77,1.45s.85,1,1.36,1.67v7.12c-.88,1.41-2.47,2.26-3.55,3.67a5.61,5.61,0,0,0,.29,1.42,37.7,37.7,0,0,1,1.56,4.6,10.82,10.82,0,0,0,1.69,3.24c.28.48.57,1,1,1.6-2.43.14-4.67,0-7,.08-.14-1.94-1.19-3.53-1.6-5.33-.21-.91-.62-1.78-.91-2.67-.22-.68-.38-1.23-1.08-1.51a2.39,2.39,0,0,0-2.32.06,3.23,3.23,0,0,1-.61.17c0,1.5.1,3,0,4.59S299.92,257.52,299.89,259.15Zm3.79-13.69c.9-.69,2.18-.76,2.71-2s.22-2.4.35-3.58a5.63,5.63,0,0,0-2.67-1.19c-1.36,0-2.72,0-4,0-.2.2-.44.33-.44.46,0,1.83,0,3.67,0,5.56a1.59,1.59,0,0,0,1.78.51A2.76,2.76,0,0,1,303.68,245.46Z" transform="translate(-43.56 -144.03)"/><path d="M95.67,259.14a11.61,11.61,0,0,0,.82-5.13c0-5.51,0-11,0-16.53,0-.81.19-1.68-.7-2.24-.11-.07,0-.46,0-.87,2.37,0,4.74,0,7.11,0H110c1.44,1.48,3.45,2.46,4.5,4.78V254a9.36,9.36,0,0,0-1.66,1.72c-.39.69-1.14.86-1.55,1.47s-1.31,1-1.53,1.95Zm6.62-20.46a3,3,0,0,0-.39.92c-.06.83,0,1.67,0,2.51v11c0,.54-.08,1.09.61,1.45a19.2,19.2,0,0,0,2.93,0c1.69-.26,3.42-1.33,3.33-3.4-.12-2.87-.12-5.76,0-8.63a4.06,4.06,0,0,0-1-2.67,2.53,2.53,0,0,0-2.22-1.12C104.52,238.71,103.45,238.68,102.29,238.68Z" transform="translate(-43.56 -144.03)"/><path d="M191.54,254.65V238.84l4.47-4.47h9.29l4.54,4.54v15.47L205,259.2h-9Zm6.45-.82a5.69,5.69,0,0,0,3,.7c1.68.08,3-.67,3.08-3.07.13-3.36,0-6.72,0-10.08a2.65,2.65,0,0,0-2.58-2.69c-.47-.06-1,0-1.43,0-.78-.06-1.73,0-2.06.58-.44.81-1.2,1.47-1.17,2.58.09,2.7.05,5.4,0,8.1A5.15,5.15,0,0,0,198,253.83Z" transform="translate(-43.56 -144.03)"/><path d="M182.16,254.33l-4.86,4.85h-8.88l-4.57-4.57v-15.8l4.42-4.42h9.42l3.59,3.59a2.83,2.83,0,0,1,.89,2.15C182.15,244.87,182.16,249.6,182.16,254.33Zm-11.9-.5a1,1,0,0,1,.4.18c1.16.82,2.5.55,3.74.47,1-.07,2-1.54,2-2.87,0-3.42,0-6.84,0-10.26a3.25,3.25,0,0,0-.34-1.12,2.17,2.17,0,0,0-1.91-1.5,6,6,0,0,0-3.77.38c-.34,1-1.28,1.69-1.22,2.93.11,2.52,0,5,0,7.56C169.2,251,169,252.41,170.26,253.83Z" transform="translate(-43.56 -144.03)"/><path d="M87,234.72l.5,4.36c-.9-.15-1.71.2-2.47-.37-.24-.18-.7,0-1.06,0H78.39a1.08,1.08,0,0,0-.64,1.13c0,1.13,0,2.27,0,3.56,2-.07,4,.23,6-.52a10.52,10.52,0,0,1,.12,2.4c0,.77,0,1.54,0,2.46a5,5,0,0,1-1.12.32c-1.62,0-3.23,0-5,0,0,1.14-.06,2.26,0,3.37s-.39,2.14.43,3.11c2,0,4,0,5.93,0a4.35,4.35,0,0,0,1-.3l3-.77c.15,1-.58,1.87-.71,2.84a6,6,0,0,1-.68,2.88H72c.2-1.05-.29-2.11.39-3.08.06-.08,0-.27,0-.35.43-.59-.75-.89-.22-1.61.29-.4.19-1.12.2-1.69.06-2-.51-4-.38-6s.67-3.83.38-5.78c-.1-.73.35-1.54-.34-2.2-.05,0,.07-.31.12-.47s.3-.68.21-.78c-.77-.81.2-2-1-2.67l.35-.2h14C86.21,234.36,86.76,234.28,87,234.72Z" transform="translate(-43.56 -144.03)"/><path d="M269.64,259.14a2.36,2.36,0,0,1,0-.76,10,10,0,0,0,.34-4c0-5.16,0-10.32,0-15.47,0-1,.28-2.09-.31-3.11-.2-.35,0-.91,0-1.41h15c.92,1.42.29,3,.58,4.63-.76-.09-1.43.29-2.06-.32-.13-.12-.46,0-.7,0-2,0-4,0-5.94,0a3.81,3.81,0,0,0-1.06.31v4.36c2-.06,4,.19,6.12-.54-.24,1.87.38,3.58-.37,5.12-2,.33-3.93-.31-5.75.4v5.35l1.15.82c1.29,0,3,0,4.63,0s3-.71,4.8-1.16c-.72,1.32-.48,2.62-1.1,3.74-.13.24.12.67,0,1a5,5,0,0,1-.6,1.07Z" transform="translate(-43.56 -144.03)"/><path d="M230.83,259.18H220.4c-1.15-1.75-.84-4-1.68-6.13,1.65.73,3,1.62,4.71,1.48s3.3.37,4.84-1.11c0-.11.2-.52.38-.93a2.62,2.62,0,0,0-2-3.74c-1.16-.21-2.31-.54-3.46-.79a8.61,8.61,0,0,1-2.69-1.73c-.51-.36-.77-1.06-1.56-1.13v-7c1.44-1,2.33-2.61,3.79-3.69h9.78a20.17,20.17,0,0,1,1.83,5.46c-2.35-1.47-4.86-1.15-7.32-1.12a2.79,2.79,0,0,0-1.36.59,8.61,8.61,0,0,0-1,1v1.79a4.16,4.16,0,0,0,3.47,1.68,6.46,6.46,0,0,1,1.58.51c.38.12.78.17,1.2.26,1.1,1.09,2.24,2.23,3.47,3.47a10.15,10.15,0,0,0,0,1.09,6.59,6.59,0,0,0,.22,1.16c.08.3-.33.64.11.94.09.07-.07.53-.15.8a3.59,3.59,0,0,0,.08,2.73A52.21,52.21,0,0,1,230.83,259.18Z" transform="translate(-43.56 -144.03)"/><path d="M248.78,239.08c-3.74-.09-4.8,0-6.86.73a5.24,5.24,0,0,1,0-1.95c.47-1,.14-2.07.44-3.06,0-.15.24-.26.38-.4h17.8c1,1.64.58,3.54,1.22,5.35-1.38.07-2.38-.84-3.61-.73s-2.38,0-3.67,0v1.47c0,5.4,0,10.8,0,16.2,0,.78.13,1.57.21,2.36-2.81.31-5.31.22-6.21-.26a17.55,17.55,0,0,0,.56-3c.06-5.22,0-10.44,0-15.66A3.6,3.6,0,0,0,248.78,239.08Z" transform="translate(-43.56 -144.03)"/><path d="M146.4,273.3l.36,1.44c.17.64-.23,1.17-.44,1.7-.1.27-.64.36-1.16.63l-.11-2.21-1.48-1.29a6.65,6.65,0,0,0-1.74.26,2.77,2.77,0,0,0-1.67,3.64,5.34,5.34,0,0,0,1,1.78,21,21,0,0,1,1.8,3c.23.39.61.73.69,1.14a9.9,9.9,0,0,1,.35,3.08c-.29,2.1-.89,4.07-3,5.18a8.8,8.8,0,0,1-6.33.11c-1.52-.64-1.66-2-2.1-3.26a3.3,3.3,0,0,1,0-.89,1.89,1.89,0,0,1,.68-1.5c.3-.27.84-.26,1.44-.41a7.41,7.41,0,0,0-.31,1,9.71,9.71,0,0,0,0,1.08v1.07a3.05,3.05,0,0,0,1.95,1.3,4.86,4.86,0,0,0,2.88-.4,3.26,3.26,0,0,0,1.63-2,3.46,3.46,0,0,0-.15-2.69,41.1,41.1,0,0,0-2.69-4.45,24.5,24.5,0,0,1-1.1-3,4.68,4.68,0,0,1,.5-2.54c.28-.49,0-1.23.72-1.5.78-1.83,2.41-2.08,4.09-2.18a5.71,5.71,0,0,1,1.89.19C145.11,272,145.1,272,146.4,273.3Z" transform="translate(-43.56 -144.03)"/><path d="M247.85,183.61h2.93c.35.36.69.78,1.1,1.13a3,3,0,0,1,.78,2.59,2.66,2.66,0,0,1-.94,1.73c-1.94,1.61-4.11,1.33-5.37-.88-.27-.46-.71-1-.45-1.59s.24-1.47.92-2A8.93,8.93,0,0,0,247.85,183.61Zm1.87,1.46c-.95-.19-1.24.49-1.67.9v2l1.34.39,1.13-.9v-1.3Z" transform="translate(-43.56 -144.03)"/><path d="M228.06,183.6a11.18,11.18,0,0,1,1.09,1.1,3.44,3.44,0,0,1-1.62,5.09c-1.36.49-2.25-.18-3.35-.43-.24-.67-1.1-1-1-1.88.06-.47,0-1,0-1.44a2.75,2.75,0,0,1,2.45-2.43C226.43,183.57,227.21,183.6,228.06,183.6ZM226.5,185a2.15,2.15,0,0,0-1.51,1.68c-.14.89.52,1.19.91,1.56H227C228.09,186.91,228.42,186.28,226.5,185Z" transform="translate(-43.56 -144.03)"/><path d="M254.55,189.66v-6.5l3.51,3v-2.42h1.79v6.43c-.87-.12-1.16-.87-1.7-1.27s-1.11-.82-1.75-1.31c0,.7-.08,1.38-.13,2.12Z" transform="translate(-43.56 -144.03)"/><path d="M115.92,254.69l-6,6c-1.13-.24-2.41.38-3.66-.33-.23-.13-.72.3-1.09.3-2.7,0-5.4,0-8.09,0a1.37,1.37,0,0,1-1-.63h13.46c1.7-2.06,3.93-3.53,5.62-5.73V239.4a1.13,1.13,0,0,1,.7,1.26C115.91,245.34,115.92,250,115.92,254.69Z" transform="translate(-43.56 -144.03)"/><path d="M231.54,183.61c1.7-.14,2,1.9,3.52,2.21v-2.18h1.75v6.5l-3.46-2.81v2.32l-1.81.09Z" transform="translate(-43.56 -144.03)"/><path d="M242.83,183.66l1.61,1.63c0,.74,0,1.52,0,2.29a2.24,2.24,0,0,1-2.17,2.14h-3.13v-6.06Zm-.56,4.59c.16-.77.32-1.52.47-2.23-.61-.48-.91-1.32-1.84-.88v3.11Z" transform="translate(-43.56 -144.03)"/><path d="M128.87,188.43c.14-1.69-.53-3.58,1.33-4.83H133l1.26,1.28v3.56C132.5,190.65,130.74,190.65,128.87,188.43Zm3.57-2.89-1.2-.55a3.85,3.85,0,0,0-.59,2.2,1.07,1.07,0,0,0,.54,1c.47.24.91,0,1.25-.47Z" transform="translate(-43.56 -144.03)"/><path d="M143.36,185.37c.39.48,1,.37,1.38,1a3,3,0,0,1,.32,2,2.35,2.35,0,0,1-3,1.67c-.7-.24-1.78-.31-2-1.19s-.91-1.79-.22-2.8a3.52,3.52,0,0,0,.2-1.25c.57-.53,1.07-1.25,2.06-1.37a4.71,4.71,0,0,1,2.19.4c.25.09.33.65.5,1l-1.39.54c-.05,0-.12,0-.1,0a6.82,6.82,0,0,0-.85-.78l-1.09,1.25Zm-.9,3.42c.92-.89,1-1.22.55-1.64a2.82,2.82,0,0,0-1-.37l-.43.91Z" transform="translate(-43.56 -144.03)"/><path d="M103.28,183.66V185h-2.35l-.21.69,2.53.11v1.76h-2.37l-.12.68h2.51v1.41H99v-6Z" transform="translate(-43.56 -144.03)"/><path d="M314.23,259.92a36.23,36.23,0,0,1-3-5.49,38.88,38.88,0,0,1-1.9-5.56l3.52-3.52v-7.1c.51.34.73.61.72,1.14,0,2,0,4,0,6.17l-3.64,3.54c.82,1.07.87,2.47,1.44,3.69a22.17,22.17,0,0,0,1.83,3.92c.85,1.17,1.22,2.63,2.29,3.93-2.63,0-5.13,0-7.62,0-.38,0-.75-.34-1.52-.7Z" transform="translate(-43.56 -144.03)"/><path d="M107.13,184.62l-.79,1.08c1.42.07,2.62.23,3.44,1.34v1.75a3,3,0,0,1-2.83,1.3,3.2,3.2,0,0,1-2.26-1.38c1.33-1,1.33-1,2.78.07l.34-.88-2.65-1v-2.44l.86-.86a20.72,20.72,0,0,1,2.22,0,1.85,1.85,0,0,1,1.52,1.28C108.77,185.64,108.59,185.62,107.13,184.62Z" transform="translate(-43.56 -144.03)"/><path d="M56.72,259.94h7.37c-1-1.9-2.39-3.48-3-5.41s-1.42-3.86-2-5.8l4-3.89V238.7c.11,0,.16,0,.19.07s.1.09.1.13v6.44l-3.55,3.55a29.54,29.54,0,0,1,1.35,3.59c.18.77.8,1.32.81,2.2s.89,1.31,1.17,2a35.25,35.25,0,0,0,2.13,3.81,12.22,12.22,0,0,1-2.81.12,25.16,25.16,0,0,1-2.88,0C58.68,260.56,57.67,261,56.72,259.94Z" transform="translate(-43.56 -144.03)"/><path d="M151.56,248.66l3.93-3.92a41.56,41.56,0,0,1,.31-6v6.63l-3.5,3.49c.25.48.65.91.67,1.34,0,1.24.78,2.21,1.13,3.32a9.16,9.16,0,0,0,1.38,3,19.51,19.51,0,0,1,1.49,2.79,11.39,11.39,0,0,0,.86,1.15,2.51,2.51,0,0,1-.61.17c-2.21,0-4.43,0-6.65,0a1.24,1.24,0,0,1-1.23-.71h7.39C154.15,256.41,153,252.47,151.56,248.66Z" transform="translate(-43.56 -144.03)"/><path d="M124.49,184.86l-1,1.42-1-1.25c.74-1.43.74-1.43,3.78-1.43l.85,1.07a3,3,0,0,1-2.15,3.58H127v1.4H122.3a4.41,4.41,0,0,1,.41-.77c.71-.74,1.45-1.44,2.15-2.17S125.48,185.93,124.49,184.86Z" transform="translate(-43.56 -144.03)"/><path d="M169.24,260.22v-.66c.23.15.39.35.56.35,2.63,0,5.27,0,7.86,0,1.4-1.4,2.74-2.77,4.11-4.1a3.06,3.06,0,0,0,1.12-2.61c-.09-.88-.17-1.77-.18-2.65s.14-1.75.16-2.63,0-1.92,0-2.87,0-1.8,0-2.7c0-.45.11-.9-.27-1.35-.14-.15.26-.77.49-1.36.2.42.49.74.48,1a7.3,7.3,0,0,0,0,2.24,9.91,9.91,0,0,1,0,2.5,23.52,23.52,0,0,0,0,2.52c.08.63-.35,1.18-.06,1.88s-.49,1.24-.35,2a15.35,15.35,0,0,1,0,2.15,9.32,9.32,0,0,0,.2,1.22c-.68.68-1.5,1.48-2.29,2.3s-2.11,1.59-2.6,2.71Z" transform="translate(-43.56 -144.03)"/><path d="M116.25,183.66V185h-1.71v4.67h-1.8V185.1h-1.8l-.07-1.44Z" transform="translate(-43.56 -144.03)"/><path d="M255.24,239.8h3.89l.1.64H255.6v6.2c0,2.22,0,4.43,0,6.65a9.42,9.42,0,0,0,.6,3.88,15.7,15.7,0,0,1,.57,3.55c-.36-.23-.54-.44-.69-.42-1.21.14-2.43-.29-3.66.28a1.89,1.89,0,0,1-2-.23c-.12-.1-.49.11-.83.2l-.41-.4c.05-.08.1-.22.16-.22,1.79,0,3.59,0,5.39,0a4.89,4.89,0,0,0,1.26-.33,6.72,6.72,0,0,1-.75-2.74C255.25,251.2,255.24,245.57,255.24,239.8Z" transform="translate(-43.56 -144.03)"/><path d="M87.77,260.64H72.9l-.51-.51a.47.47,0,0,1,.07-.12s.09-.09.14-.09H87.05a10.66,10.66,0,0,0,1.16-3.48c.1-.85.25-1.69.43-2.52,0-.21.25-.37.4-.59.65,1-.19,1.66-.14,2.45a7.53,7.53,0,0,1-.6,2.44C88.08,259,88,259.76,87.77,260.64Z" transform="translate(-43.56 -144.03)"/><path d="M286.65,253.43c.26,2.43-.69,4.55-.95,6.8,0,.14-.24.25-.4.41-4.65,0-9.32,0-14,0-.54,0-1,0-1.33-.68h14.95a2.88,2.88,0,0,0,.56-1.82c-.06-.37.2-.64.32-.95a15.13,15.13,0,0,0,.41-2.17C286.32,254.49,286.5,254,286.65,253.43Z" transform="translate(-43.56 -144.03)"/><path d="M210.9,255.4l-4.85,4.84H197l-.08-.51c2.83.42,5.65.06,8.42.22,1.77-1.77,3.51-3.51,5.32-5.34V239.82c.25.53,1.1.92.34,1.66-.18.18,0,.69,0,1.05,0,2,0,4,0,5.94,0,.51-.24,1.08.29,1.51a.33.33,0,0,1,.05.32C210.48,252,211.25,253.7,210.9,255.4Z" transform="translate(-43.56 -144.03)"/><path d="M231.4,260.62c-1.82.13-3.33-.62-4.93-.34-.66.12-1.36-.23-2,.3-.25.2-.93-.25-1.43-.28a12.68,12.68,0,0,1-2.65-.27c.3,0,.6-.1.9-.11,2.87,0,5.74,0,8.61,0a2.34,2.34,0,0,0,2.23-1.1,42,42,0,0,1,3.06-3.58v-6.83a1,1,0,0,1,.66,1.12c0,2.09,0,4.18,0,6.16Z" transform="translate(-43.56 -144.03)"/><path d="M218.19,189.66v-6h1.32c.36,1.54-.38,3.19.51,4.61h2l.08,1.38Z" transform="translate(-43.56 -144.03)"/><path d="M142.56,250.6H145l0,.18a7.58,7.58,0,0,1-.81.13c-.28,0-.57,0-.93,0,0,1.7,0,3.31,0,4.91a9.57,9.57,0,0,0,.34,1.64c.1.5-.11,1,.26,1.52.24.36,0,1,0,1.53-2.24,0-4.48,0-6.72,0-.13,0-.25-.24-.38-.37,0,0,0-.09,0-.12s.09-.1.14-.1h6.06c.6-.36-.55-.94.19-1.26-.57-.37-.13-1.09-.41-1.43-.46-.56-.26-1.12-.3-1.68s0-1.07,0-1.61V250.6Z" transform="translate(-43.56 -144.03)"/><path d="M51.52,260.64c-2.13,0-4.1,0-6.06,0A1.6,1.6,0,0,1,44.3,260h6.54c-1.07-3.12-.75-6.2-.81-9.33h2.83a4.86,4.86,0,0,1-2,.32c0,.59,0,1.23-.05,1.86s0,1.44,0,2.15-.31,1.32.3,1.85c-.38.62.33,1.21,0,1.83C51.76,259.14,51.38,259.85,51.52,260.64Z" transform="translate(-43.56 -144.03)"/><path d="M300.93,259.92a27.79,27.79,0,0,1-.59-9.28h2.41v.21L301,251a31.63,31.63,0,0,0,.71,9.58c-2.32,0-4.56,0-6.8,0-.16,0-.31-.29-.63-.61Z" transform="translate(-43.56 -144.03)"/><path d="M194,278a3.44,3.44,0,0,1,2.26-2.27l1.69,1.09v1.68l-1.16,1.16h-1.64Z" transform="translate(-43.56 -144.03)"/><path d="M282.27,248.71v-6.09a1.08,1.08,0,0,1,.7,1.1c0,1.86,0,3.72,0,5.59-1,.55-2-.11-3-.19-1,.84-2-.74-3.08.41,0,1.14,0,2.7-.07,4.26h-.32c0-.59,0-1.17,0-1.75s.14-1.3-.15-1.72.75-1.1-.24-1.38c.94-1,2.09-.33,3.09-.55S281.08,248.93,282.27,248.71Z" transform="translate(-43.56 -144.03)"/><path d="M136.14,184l1.69-.54v6.14h-1.69Z" transform="translate(-43.56 -144.03)"/><path d="M85,249.48c-.59,0-1.17.17-1.51,0-.5-.32-1.12-.51-1.46-.27-.51.36-.78-.1-1.17-.06s-1,0-1.61,0c0,.75,0,1.5,0,2.26v2.34l-.64.11v-5.44c2,.06,4-.19,6,.52v-5.82c.17,0,.22-.05.25,0s.12.08.12.12C85,245.22,85,247.25,85,249.48Z" transform="translate(-43.56 -144.03)"/><path d="M78.54,239.38c2.54.18,5.07-.36,7.5.67H79.21v2.56h-.67Z" transform="translate(-43.56 -144.03)"/><path d="M276,242.53c.6-.42,0-1.06.46-1.41-.78-.6.06-1.09.1-1.72,1.84,0,3.68,0,5.52,0a4.07,4.07,0,0,1,1.58.54c-2.24.21-4.47.12-6.82.18v2.53Z" transform="translate(-43.56 -144.03)"/><path d="M248.36,239.84v.52l-6.62.48c.35-.35.51-.66.71-.69A20.54,20.54,0,0,1,248.36,239.84Z" transform="translate(-43.56 -144.03)"/><path d="M236.2,240.48a1,1,0,0,1-1.12-.83c-.4-1.61-1-3.17-1.49-4.81l.6-.16A45.82,45.82,0,0,0,236.2,240.48Z" transform="translate(-43.56 -144.03)"/><path d="M227,239.76l-1.32,1.35v1.17c-.15-.1-.28-.15-.29-.21,0-.23,0-.47,0-.71a1.84,1.84,0,0,1,2-2c1.47.05,2.95,0,4.44.14a5.19,5.19,0,0,1-2.28.22C228.67,239.79,227.83,239.76,227,239.76Z" transform="translate(-43.56 -144.03)"/><path d="M286.23,239.91c-.1-.2-.28-.4-.29-.61-.13-1.49-.73-2.94-.35-4.68.25.33.61.59.58.79-.22,1.31.54,2.51.39,3.81,0,.17-.05.33-.07.5Z" transform="translate(-43.56 -144.03)"/><path d="M222.91,248.42l4.51,1.24.4.78c-.1,0-.23.14-.3.11a8.13,8.13,0,0,0-3.48-1.1,2.74,2.74,0,0,1-1.19-.53S222.89,248.61,222.91,248.42Z" transform="translate(-43.56 -144.03)"/><path d="M262.64,240.21a5.79,5.79,0,0,1-.51-1.92c.09-.66-.58-1.07-.29-1.78.19-.46-.08-1.11-.19-2,.42.42.77.61.76.78C262.29,236.87,263.2,238.43,262.64,240.21Z" transform="translate(-43.56 -144.03)"/><path d="M118.05,187.91v1.74h-1.69C116.3,188,116.3,188,118.05,187.91Z" transform="translate(-43.56 -144.03)"/><path d="M87.78,235.11h.71c.29,1.5-.29,3,.46,4.55l-.65.11Z" transform="translate(-43.56 -144.03)"/><path d="M168.12,167.4c.4-.7,0-1.79,1.08-2.16A2.1,2.1,0,0,1,168.12,167.4Z" transform="translate(-43.56 -144.03)"/><path d="M142.62,239.38c1.82.19,3.65-.39,5.67.69h-5v4.34h-.66Z" transform="translate(-43.56 -144.03)"/><path d="M50.77,244.41H50.1v-5c1.82.18,3.64-.38,5.69.68h-5Z" transform="translate(-43.56 -144.03)"/><path d="M301,240.06v4.29l-.53.11c-.07-.11-.19-.2-.19-.3,0-1.54,0-3.08,0-4.79,1.82.21,3.65-.38,5.34.69Z" transform="translate(-43.56 -144.03)"/><path d="M102.66,239.43h3.67l1.24,1.48a5.93,5.93,0,0,0-4.24-.69v13.54h-.67Z" transform="translate(-43.56 -144.03)"/><path d="M198.7,253.59a3,3,0,0,1-1.07-2.46c0-3.06,0-6.12,0-9.18,0-1.73.8-2.53,2.51-2.55a10.8,10.8,0,0,1,1.61,0,1.39,1.39,0,0,1,.89.61h-3.22a1.35,1.35,0,0,0-.72,1.35q0,4.32,0,8.64c0,.61.26,1.3-.33,1.82C199,252.32,198.64,252.89,198.7,253.59Z" transform="translate(-43.56 -144.03)"/><path d="M170.33,252.77a3.61,3.61,0,0,1-.39-1.08,34.64,34.64,0,0,1,0-4.67,15.53,15.53,0,0,0,.31-3.26,4.24,4.24,0,0,0-.28-1.68c-.49-1,.61-2.54,1.73-2.66a17.26,17.26,0,0,1,2.69,0c.18,0,.33.32.6.61h-3.38l-.94.94v11.75Z" transform="translate(-43.56 -144.03)"/><path d="M170.92,252.71l.06.69-.23,0-.14-.7Z" transform="translate(-43.56 -144.03)"/></g></g></svg>