<svg xmlns="http://www.w3.org/2000/svg" viewBox="0 0 503.58 232.28"><title>The Ned</title><g id="Layer_2" data-name="Layer 2"><g id="Layer_1-2" data-name="Layer 1"><path d="M256.14,97.93H166.79c-1.48,0-1.29.13-1.29-1.3a90.93,90.93,0,0,1,47.42-80,89.12,89.12,0,0,1,23.55-8.8A94.2,94.2,0,0,1,248.29,6a91,91,0,0,1,57.3,14.3,90.55,90.55,0,0,1,31.18,34.4,89.09,89.09,0,0,1,8.45,24.4,85.6,85.6,0,0,1,1.31,9.7c.22,2.77.33,5.55.31,8.32,0,.78,0,.78-.75.8H256.14Zm0-42a40.2,40.2,0,0,0-19.81,5.21c-.6.34-.61.35-.27.89l9.25,14.46c.34.53.36.53,1,.23a21.76,21.76,0,0,1,11.41-2.27,22.33,22.33,0,0,1,5.66,1.15,18,18,0,0,1,2.79,1.2c.36.19.59.14.77-.22a1.81,1.81,0,0,1,.19-.29l9-14c.55-.86.55-.75-.34-1.25A40.27,40.27,0,0,0,256.18,55.93ZM239.42,10.42a86.66,86.66,0,0,0-29.08,11.33l11.29,17.66.66-.37a66.1,66.1,0,0,1,13.65-6.12,62.39,62.39,0,0,1,6.45-1.69c.42-.08.56-.23.47-.7-.26-1.3-.46-2.62-.68-3.93q-1-5.93-2-11.87C239.92,13.31,239.67,11.9,239.42,10.42ZM302,21.77c-.33-.21-.59-.39-.86-.55-2.36-1.41-4.77-2.72-7.25-3.9a87,87,0,0,0-20.41-6.8c-.53-.11-.54-.1-.64.48-.57,3.32-1.15,6.65-1.71,10-.54,3.13-1.06,6.27-1.59,9.4-.11.72-.1.72.61.88A65.54,65.54,0,0,1,286.35,37c1.29.66,2.54,1.38,3.79,2.1.64.37.56.3.92-.23l.14-.22L298,28.06ZM241.41,10.51l.27,1.63q.91,5.34,1.82,10.68c.42,2.45.82,4.9,1.24,7.35.09.56.14.59.76.49l1.88-.29a61,61,0,0,1,7.87-.55c1.71,0,3.42,0,5.12.11a54.68,54.68,0,0,1,6.63.75c.34.07.56,0,.6-.4s.11-.68.17-1l2-11.87c.36-2.17.75-4.33,1.11-6.5.13-.82.11-.83-.65-1a90.74,90.74,0,0,0-24.46-.51c-1.27.15-2.52.34-3.78.53C241.68,10,241.33,10,241.41,10.51ZM186.54,43.32c5.39,4.53,10.72,9,16.09,13.49A68.08,68.08,0,0,1,219,41.12c-3.79-5.92-7.54-11.78-11.3-17.67A89,89,0,0,0,186.54,43.32Zm139.27,0a88.8,88.8,0,0,0-21.15-19.87l-11.3,17.68a67.75,67.75,0,0,1,16.37,15.68ZM310.88,58.39l.46.71a65.34,65.34,0,0,1,8,16.2c.18.55.35,1.1.54,1.65s.19.57.79.41l.41-.12,10.83-3.4c2.48-.78,5-1.54,7.44-2.33.77-.25.77-.12.51-.93s-.43-1.38-.66-2.06a85.83,85.83,0,0,0-9.92-20.35c-.64-1-1.32-1.9-2-2.86-.23-.35-.45-.4-.75-.08a3,3,0,0,1-.26.23L313.73,56ZM185.45,45a1.89,1.89,0,0,0-.66.73,86.85,86.85,0,0,0-10.55,19.75q-1,2.64-1.81,5.33c-.13.42-.05.59.35.67a3.31,3.31,0,0,1,.42.12L187.32,76l4.31,1.34c.67.2.67.19.9-.49,0,0,0-.11.05-.17A66,66,0,0,1,201.06,59c.41-.61.41-.62-.14-1.09l-.26-.22-11.9-10ZM281,60.44a1.78,1.78,0,0,0,.67.62,43.61,43.61,0,0,1,9.68,9.64c.69,1,.69,1,1.63.16L304.76,61l3.47-2.93a65.65,65.65,0,0,0-15.92-15.28ZM220.25,71.6a1.9,1.9,0,0,0,.53-.61,43.54,43.54,0,0,1,9.94-10c.73-.53.72-.44.23-1.2l-.09-.14L220.57,43.6c-.56-.88-.44-.89-1.34-.27a65.28,65.28,0,0,0-13.56,12.73,16.57,16.57,0,0,0-1.51,2ZM179.08,94.8h9.81c.73,0,.73,0,.78-.76,0-.49.07-1,.09-1.47a65.9,65.9,0,0,1,1.82-12.32c.2-.81.2-.81-.6-1.06l-13.14-4.12c-1.84-.58-3.69-1.17-5.54-1.74-.53-.16-.54-.15-.7.39s-.23.83-.33,1.25a91.54,91.54,0,0,0-2.61,18.85c0,.2,0,.41,0,.61s.09.38.35.37h10.07Zm154.1,0H343c.67,0,.67,0,.67-.65a.91.91,0,0,0,0-.17,86.71,86.71,0,0,0-.83-9.93,83.93,83.93,0,0,0-2.05-10.19c-.19-.69-.2-.7-.84-.5l-18.68,5.86c-.68.21-.68.22-.5,1a70,70,0,0,1,1.93,14c0,.64,0,.65.68.65Zm-76.9-63a54.67,54.67,0,0,0-6,.24c-1.44.13-2.87.33-4.3.53-.73.1-.78.2-.67.88.23,1.37.46,2.74.7,4.1q1.28,7.43,2.54,14.85c.19,1.07.18,1.08,1.3.9a41.85,41.85,0,0,1,8.29-.44c1.65.08,3.28.26,4.92.49.64.09.64.07.75-.58.07-.48.14-1,.22-1.45q1.53-8.88,3.05-17.76c.13-.8.07-.89-.72-1A63.16,63.16,0,0,0,256.28,31.76Zm33.37,9.31a63.59,63.59,0,0,0-20.56-8c-.26,1.54-.51,3-.75,4.44q-.91,5.34-1.81,10.67c-.3,1.74-.59,3.48-.9,5.21-.06.33,0,.49.34.55l.33.08a43.18,43.18,0,0,1,11.4,4.51c.19.11.36.3.67.22Zm-55.6,17.75,1.1-.61a39.47,39.47,0,0,1,3.57-1.77A42.65,42.65,0,0,1,246.1,54c.7-.16.69-.17.57-.86L245.8,48q-.92-5.37-1.82-10.75c-.24-1.39-.48-2.78-.72-4.21a63.88,63.88,0,0,0-20.56,8Zm-14.9,14.59c0-.31-.26-.4-.43-.54l-9.43-7.93L203.43,60c-.43-.36-.46-.36-.78.12-.59.89-1.18,1.78-1.73,2.7a62.85,62.85,0,0,0-6.55,14.58c-.2.67-.2.68.45.89l2.39.76,16.36,5.12c.68.22.7.21.87-.35A43.79,43.79,0,0,1,219,73.76Zm90.18-13.64a2.22,2.22,0,0,0-.7.51q-7.51,6.28-15,12.6c-.48.4-.48.41-.15,1a43.65,43.65,0,0,1,4.42,10c.19.64.21.64.91.42l18.59-5.82.41-.13c.25-.09.41-.22.28-.52a2.77,2.77,0,0,1-.12-.41,64.12,64.12,0,0,0-8.12-17C309.69,60.14,309.59,59.89,309.33,59.77Zm-30.08,3.45-.39.57-9.15,14.33c-.4.61-.5.54.18,1.09a22.09,22.09,0,0,1,6.39,8.31c.08.17.11.39.36.49l.73-.41,14.37-8.42c.89-.52.82-.41.36-1.3A40.23,40.23,0,0,0,283.89,67,35,35,0,0,0,279.25,63.22Zm-46.14,0c-.27.18-.46.29-.65.43a40.62,40.62,0,0,0-11,12.1c-.46.77-.88,1.56-1.3,2.36-.31.59-.3.6.31,1l.07,0q7.34,4.29,14.67,8.59c.73.43.67.3.92-.27a22.09,22.09,0,0,1,6.35-8.24c.56-.45.67-.35.15-1.17q-2.88-4.49-5.74-9ZM310.26,94.8h9.81c.66,0,.68,0,.67-.65,0-1.51-.18-3-.32-4.5a59.39,59.39,0,0,0-1.53-8.87c-.19-.75-.2-.75-1-.51l-6.61,2.07q-6.07,1.92-12.15,3.81c-.46.14-.57.28-.46.77a38.83,38.83,0,0,1,.95,7c0,.84.05.84.9.84Zm-108.14,0h9.8c.75,0,.77,0,.79-.75a37.8,37.8,0,0,1,.91-7c.15-.68.31-.73-.59-1l-18.66-5.85c-.72-.22-.72-.22-.91.52A67.36,67.36,0,0,0,191.59,94c0,.77,0,.77.73.77Zm85.21,0h8.59c.67,0,.65,0,.6-.69-.09-1.38-.22-2.76-.44-4.13a39.71,39.71,0,0,0-2.5-8.89c-.23-.57-.25-.57-.8-.25q-3.22,1.88-6.43,3.77c-2.87,1.68-5.73,3.37-8.61,5-.43.25-.54.48-.38.95A20.81,20.81,0,0,1,278,94c.13.82.12.83,1,.83Zm-71.49,0H228.6c1.68,0,3.36,0,5,0,.48,0,.65-.15.7-.62a21.93,21.93,0,0,1,.62-3.5c.2-.73.19-.74-.47-1.13q-6.71-3.91-13.39-7.85l-1.57-.92c-.5-.27-.5-.26-.75.28,0,.07-.06.15-.1.23a39.34,39.34,0,0,0-2,6.71A33.63,33.63,0,0,0,215.84,94.8Zm30.93-16.09,9.32,14.57a1.44,1.44,0,0,0,.61-.7l8.37-13.07c.59-.92.65-.79-.34-1.26a19.65,19.65,0,0,0-12.17-1.6A18.2,18.2,0,0,0,246.77,78.71Zm-2.64,1.72a3.17,3.17,0,0,0-.36.21,20,20,0,0,0-7.22,11.79c-.12.63-.19,1.26-.3,1.88-.05.32,0,.52.38.49h16.05c.18,0,.38.06.57-.1C250.19,89.92,247.16,85.18,244.13,80.43Zm15,14.28.23.07h16.22c.6,0,.62,0,.53-.75a20.14,20.14,0,0,0-4.15-10,18,18,0,0,0-3.69-3.59Z" transform="translate(-5.53 -5.67)"/><path d="M138.18,182.54H121.07c-.28,0-.43-.13-.43-.41v-.18c0-1.6-.1-1.33,1.25-1.32a2.69,2.69,0,0,0,1.54-.44c1.93-1.23,3.86-2.45,5.81-3.64a1.13,1.13,0,0,0,.61-1.12q0-8,0-16.06c0-.81,0-.82-.8-.82H107.59c-.75,0-.75,0-.75.77,0,5.38,0,10.76,0,16.15a1,1,0,0,0,.54,1c1.94,1.21,3.87,2.43,5.78,3.68a3,3,0,0,0,1.78.51c1.23,0,1.11-.16,1.12,1.1,0,.81,0,.81-.81.81H81.72c-.81,0-.81,0-.82-.8v-.26c0-.86,0-.9.85-.85A3.55,3.55,0,0,0,84,180c1.78-1.18,3.61-2.3,5.43-3.42a1.14,1.14,0,0,0,.63-1.1q0-17.76,0-35.51a1.07,1.07,0,0,0-.58-1.05c-1.85-1.13-3.69-2.27-5.5-3.46a3.55,3.55,0,0,0-2.27-.67c-.81.06-.83,0-.83-.78,0-1.16-.13-1.1,1-1.1h33.43c.63,0,.65,0,.65.62,0,1.51.15,1.27-1.21,1.26a2.69,2.69,0,0,0-1.54.44c-1.93,1.23-3.86,2.45-5.81,3.64a1.21,1.21,0,0,0-.65,1.18c0,5.1,0,10.19,0,15.28,0,.18,0,.35,0,.52a.3.3,0,0,0,.33.32h21.7c.18,0,.35,0,.52,0,.34,0,.47-.16.45-.48,0-.15,0-.29,0-.44,0-5,0-10.07,0-15.1a1.34,1.34,0,0,0-.72-1.32q-2.82-1.71-5.59-3.51a2.71,2.71,0,0,0-1.86-.53,3,3,0,0,1-.52,0,.55.55,0,0,1-.26,0c-.54-.35-.18-.89-.26-1.34-.06-.29.06-.52.41-.52h33.68c1.07,0,1.07,0,1,1.12,0,.76,0,.82-.77.76a3.75,3.75,0,0,0-2.42.71c-1.79,1.18-3.61,2.31-5.43,3.42a1.06,1.06,0,0,0-.58,1q0,17.81,0,35.6a1.12,1.12,0,0,0,.63,1.09q2.86,1.73,5.68,3.51a2.57,2.57,0,0,0,1.71.48c.2,0,.4,0,.61,0,.39,0,.58.11.57.54,0,1.68.11,1.38-1.29,1.38Z" transform="translate(-5.53 -5.67)"/><path d="M459,132.88c6.56,0,13.13-.07,19.7,0a35.92,35.92,0,0,1,17.69,4.55A24.79,24.79,0,0,1,507.21,149a21.66,21.66,0,0,1-3.58,23.34,28.13,28.13,0,0,1-10.69,7.21,40.79,40.79,0,0,1-11.09,2.64,64.14,64.14,0,0,1-6.5.31H439.06c-1.21,0-1.13.17-1.13-1.19,0-.71,0-.79.73-.72a4.69,4.69,0,0,0,3.15-.92c1.67-1.09,3.39-2.1,5.11-3.11a1.09,1.09,0,0,0,.61-1.1q0-17.76,0-35.51a1.11,1.11,0,0,0-.63-1.1c-2-1.19-4-2.4-6-3.63a2.62,2.62,0,0,0-1.7-.48,6.77,6.77,0,0,1-.78,0c-.33,0-.49-.13-.48-.46a.27.27,0,0,0,0-.09c0-1.57-.1-1.33,1.26-1.34Zm12.73,47.24a62.71,62.71,0,0,0,7.08-.21,12,12,0,0,0,9.3-6.2,17.94,17.94,0,0,0,1.46-3.51,33.53,33.53,0,0,0,1.33-8.37,59.92,59.92,0,0,0-.64-13,24.44,24.44,0,0,0-2.26-7.07,11.44,11.44,0,0,0-8.25-6.15,26.27,26.27,0,0,0-5-.45c-3.12,0-6.25,0-9.37,0-1.17,0-1.09-.1-1.09,1.07v43.14c0,.71,0,.72.73.73Z" transform="translate(-5.53 -5.67)"/><path d="M390.57,132.88h28.91c.75,0,.77,0,.77.8q0,8.64,0,17.28c0,.77,0,.78-.76.8a2,2,0,0,1-.35,0c-.76,0-.81,0-.77-.77a1.77,1.77,0,0,0-.58-1.45q-5.55-5.68-11.06-11.4c-.79-.81-1.58-1.62-2.34-2.45a1.5,1.5,0,0,0-1.21-.52H387.64c-.81,0-.81,0-.81.81q0,9.42,0,18.84c0,.74,0,.75.77.75,1.91,0,3.82,0,5.73,0a1.23,1.23,0,0,0,1-.42q4-4.18,8.11-8.33a1.94,1.94,0,0,0,.66-1.68c-.05-.52,0-1,0-1.56s.15-.51.51-.51c1.65,0,1.4-.12,1.4,1.29q0,11.76,0,23.53c0,1.26,0,1.26-1.22,1.22-.67,0-.68,0-.69-.68,0-.92,0-1.85,0-2.78a1.05,1.05,0,0,0-.46-.94q-4.1-3.22-8.15-6.49a1.53,1.53,0,0,0-1-.37h-5.9c-.69,0-.7,0-.7.73q0,6.85,0,13.72,0,3.6,0,7.2c0,.7,0,.71.72.71,5.24,0,10.48,0,15.71,0a1.43,1.43,0,0,0,1.18-.56q4.68-5.19,9.39-10.35c1.44-1.58,2.85-3.19,4.32-4.75a3.11,3.11,0,0,0,1-2.18c0-.73.07-.72.81-.73h.17c.86,0,.88,0,.84.85-.15,3.14-.32,6.29-.48,9.43l-.21,4.25c-.08,1.73-.15,3.47-.22,5.2,0,.2,0,.4,0,.6a.49.49,0,0,1-.62.53c-.2,0-.4,0-.61,0H362c-1.25,0-1.15.15-1.15-1.17,0-.74,0-.8.79-.74a3.81,3.81,0,0,0,2.5-.74c1.73-1.15,3.51-2.24,5.28-3.33a1.12,1.12,0,0,0,.62-1.1q0-17.72,0-35.42a1.2,1.2,0,0,0-.64-1.19c-2-1.23-4-2.49-6-3.78a2.71,2.71,0,0,0-1.59-.28c-.94,0-.94,0-.94-.95v-.52a.37.37,0,0,1,.43-.42h29.26Z" transform="translate(-5.53 -5.67)"/><path d="M198.84,132.88h28.92c.73,0,.76,0,.76.81q0,5,0,9.9,0,3.65,0,7.29c0,.87,0,.87-.86.88-.12,0-.23,0-.35,0-.66,0-.71,0-.67-.7a1.9,1.9,0,0,0-.66-1.58c-2.38-2.42-4.72-4.86-7.07-7.29-2-2-3.95-4.07-5.89-6.14a2.51,2.51,0,0,0-2-.9c-4.91,0-9.84,0-14.76,0-.17,0-.34,0-.52,0-.65,0-.66,0-.66.68V155c0,.6,0,.62.63.62,2,0,3.93,0,5.9,0a1.18,1.18,0,0,0,.92-.37q4.26-4.41,8.53-8.78a1,1,0,0,0,.29-.77c0-.7,0-1.39,0-2.09,0-.37.13-.51.5-.51,1.61,0,1.33-.13,1.33,1.25q0,11.85,0,23.7c0,1.15,0,1.15-1.14,1.11-.66,0-.67,0-.68-.69,0-.93,0-1.85,0-2.78a1,1,0,0,0-.41-.88q-4.15-3.28-8.28-6.6a1.58,1.58,0,0,0-1-.31h-5.73c-.8,0-.81,0-.81.79v20.67c0,.86,0,.87.82.87,5.21,0,10.42,0,15.63,0a1.46,1.46,0,0,0,1.2-.54q5.46-6,11-12.08c1.05-1.16,2.09-2.33,3.16-3.46a1.67,1.67,0,0,0,.53-1.32,2.1,2.1,0,0,1,0-.43c.09-.7.09-.7.79-.71h.35c.75,0,.78,0,.75.77-.09,1.94-.2,3.87-.3,5.8-.07,1.27-.13,2.54-.19,3.81l-.42,8.93c-.07,1.55-.07,1.55-1.56,1.55H170.28c-1.28,0-1.15.17-1.15-1.16,0-.75,0-.81.77-.75a3.74,3.74,0,0,0,2.5-.73c1.74-1.15,3.51-2.25,5.29-3.33a1.19,1.19,0,0,0,.66-1.16c0-2.7,0-5.39,0-8.08,0-9,0-18.06,0-27.09a1.52,1.52,0,0,0-.85-1.5c-1.86-1.12-3.69-2.28-5.51-3.46a2.62,2.62,0,0,0-1.79-.5c-.2,0-.4,0-.6,0s-.49-.13-.47-.46v-.18c0-1.44-.15-1.26,1.23-1.26Z" transform="translate(-5.53 -5.67)"/><path d="M335.76,161.53a1.77,1.77,0,0,0,.05-.76c0-4.83,0-9.66,0-14.5a2.46,2.46,0,0,0-.48-1.52q-3.31-4.67-6.57-9.38a1.17,1.17,0,0,0-1.22-.6,1.81,1.81,0,0,1-.52,0c-.33,0-.8.17-1-.13a2.72,2.72,0,0,1-.06-1.53c0-.17.17-.21.32-.22H347c1,0,1,0,1,1.06,0,.82,0,.91-.81.82a2.36,2.36,0,0,0-2.51,1.3c-1.9,2.87-3.92,5.67-5.92,8.46a3.19,3.19,0,0,0-.62,2q0,17.46,0,34.9c0,1.25.12,1.05-1.12,1.13a3.12,3.12,0,0,1-2.27-.79Q314.4,165.68,294,149.7c-2.38-1.84-4.74-3.7-7.11-5.56l-.56-.41a1.56,1.56,0,0,0-.1.89c0,8.07,0,16.15,0,24.22a2.55,2.55,0,0,0,.46,1.53q3.28,4.8,6.53,9.62a1.11,1.11,0,0,0,1.19.62,2.49,2.49,0,0,1,.61,0c.32,0,.8-.18.94.2a3.38,3.38,0,0,1,0,1.55c0,.11-.15.16-.27.16H274.37c-.33,0-.47-.16-.47-.47v-.18c0-1.52-.06-1.26,1.23-1.27s1.2,0,1.87-1c2-3,4.08-6,6.15-9a3.33,3.33,0,0,0,.63-2q0-12.94,0-25.88a1.85,1.85,0,0,0-.83-1.64q-3.76-2.87-7.48-5.8a2,2,0,0,0-1.5-.5c-.4,0-.81,0-1.21,0s-.42-.15-.43-.43,0-.63,0-1,.2-.52.55-.51h.52q12.36,0,24.74,0a2.52,2.52,0,0,1,1.65.58q16.27,12.8,32.57,25.56l2.8,2.2C335.34,161.34,335.48,161.56,335.76,161.53Z" transform="translate(-5.53 -5.67)"/><path d="M35.78,132.88H65.13c.74,0,.75,0,.75.8v21c0,.91,0,.91-.89.92h-.43c-.35,0-.56-.11-.54-.49a.27.27,0,0,0,0-.09c.24-1.19-.4-2-1.12-2.84Q56,144.07,49.27,135.88a1.77,1.77,0,0,0-1.61-.75c-1,.05-2,0-3,0-.38,0-.53.13-.5.5,0,.2,0,.41,0,.61q0,19.49,0,39a1.49,1.49,0,0,0,.83,1.51c1.9,1.11,3.76,2.28,5.63,3.44a2.3,2.3,0,0,0,1.54.42,6.32,6.32,0,0,1,.87,0c.83,0,.83,0,.84.8a2.25,2.25,0,0,1,0,.26c0,.86,0,.86-.86.86H17.7a.31.31,0,0,1-.33-.33c0-.48-.18-1,.1-1.43s.77-.17,1.15-.14A3.69,3.69,0,0,0,21,180c1.82-1.17,3.68-2.29,5.56-3.38a1.37,1.37,0,0,0,.76-1.38q0-17.62,0-35.25c0-1.39,0-2.78,0-4.17,0-.62,0-.63-.63-.63-1.1,0-2.2,0-3.3,0a1.14,1.14,0,0,0-1,.54c-1.6,1.91-3.21,3.81-4.81,5.71-3.17,3.76-6.33,7.53-9.52,11.28a2.26,2.26,0,0,0-.6,1.64c0,1.26.08,1.14-1.09,1.14-.8,0-.81,0-.81-.81V133.7c0-.81,0-.82.9-.82Z" transform="translate(-5.53 -5.67)"/><path d="M336.77,222.62v13.84c0,.23,0,.46,0,.69,0,.39-.17.5-.52.49-1,0-2.08,0-3.13,0-.4,0-.58-.16-.55-.57,0-.17,0-.34,0-.52V217c0-1,0-1,1-1.06.66,0,1.33,0,2,0a1.39,1.39,0,0,1,1.26.58c3.92,4.64,7.86,9.25,11.8,13.88.11.12.17.31.4.31a2.49,2.49,0,0,0,.06-.94V217c0-1,0-1,1-1.06.87,0,1.74,0,2.6,0,.41,0,.6.16.57.57a4.51,4.51,0,0,0,0,.52q0,9.79,0,19.61c0,1.12.09,1-1,1-.63,0-1.27,0-1.91,0a1.36,1.36,0,0,1-1.25-.57c-1.72-2.07-3.46-4.12-5.2-6.17q-3.37-4-6.76-8A.44.44,0,0,0,336.77,222.62Z" transform="translate(-5.53 -5.67)"/><path d="M230.17,222.62c0,4.63,0,9.2,0,13.77,0,1.41.16,1.24-1.24,1.25-.81,0-1.62,0-2.43,0-.37,0-.54-.14-.53-.51,0-.2,0-.4,0-.6V217.09c0-.15,0-.29,0-.44,0-.71,0-.74.73-.75s1.62,0,2.43,0a1.16,1.16,0,0,1,1,.49c1.71,2,3.44,4.06,5.17,6.08l6.58,7.73.46.52a2.14,2.14,0,0,0,.09-1q0-6.3,0-12.58c0-.21,0-.41,0-.61,0-.61.06-.66.64-.67,1,0,2,0,3,0,.35,0,.54.14.52.51,0,.18,0,.35,0,.52v19.7c0,.12,0,.23,0,.35,0,.65,0,.66-.7.67s-1.5,0-2.25,0a1.3,1.3,0,0,1-1.18-.55q-2.94-3.54-5.92-7l-5.92-7A.89.89,0,0,0,230.17,222.62Z" transform="translate(-5.53 -5.67)"/><path d="M307.79,215.63a12.43,12.43,0,0,1,7.77,2.36,11,11,0,0,1-.84,18.13c-4.53,2.77-11.36,2.45-15.43-1.39a10.4,10.4,0,0,1-3.35-7,11.06,11.06,0,0,1,9.48-11.88A20.9,20.9,0,0,1,307.79,215.63Zm.13,3.74h-.7a7.07,7.07,0,0,0-6.5,4.9,8.14,8.14,0,0,0,1.6,7.68,8.1,8.1,0,0,0,8.68,1.69c4.73-1.88,5.54-7.46,3.33-11C312.86,220.3,310.58,219.44,307.92,219.37Z" transform="translate(-5.53 -5.67)"/><path d="M200.61,215.63a12,12,0,0,1,8.19,2.75,11.06,11.06,0,0,1-.69,17.3,11.81,11.81,0,0,1-6.38,2.22,12.73,12.73,0,0,1-7.36-1.52,10.49,10.49,0,0,1-5.66-8.78,11.06,11.06,0,0,1,9.38-11.77A20.62,20.62,0,0,1,200.61,215.63Zm-7.48,11.15a7,7,0,0,0,5.06,7.06,8.86,8.86,0,0,0,3.77.27,7.16,7.16,0,0,0,6-5.07,8.33,8.33,0,0,0,.24-3.1,7,7,0,0,0-1.92-4.35,7.54,7.54,0,0,0-5.89-2.23A7.07,7.07,0,0,0,193.13,226.78Z" transform="translate(-5.53 -5.67)"/><path d="M262.09,226.7v-9.54c0-.2,0-.41,0-.61,0-.59.07-.62.66-.65h.34c2.84,0,5.67,0,8.5,0a11.75,11.75,0,0,1,7.48,2.57,10.15,10.15,0,0,1,3.7,7,11.27,11.27,0,0,1-.61,5.37,10.22,10.22,0,0,1-7.54,6.39,14.64,14.64,0,0,1-3.61.4h-8c-.93,0-.94,0-.94-1Zm4.33.06v6.68c0,.89,0,.83.86.83h3.12a12,12,0,0,0,2.24-.18,6.87,6.87,0,0,0,5.58-5.47,9.42,9.42,0,0,0,.13-2.85,6.62,6.62,0,0,0-4.06-5.79,7.65,7.65,0,0,0-3.2-.66h-3.9c-.76,0-.77,0-.77.76C266.41,222.31,266.42,224.53,266.42,226.76Z" transform="translate(-5.53 -5.67)"/><path d="M163.1,226.78v-9.72c0-.23,0-.47,0-.7s.18-.46.49-.46H167c.35,0,.45.19.45.5s0,.46,0,.69c0,5.41,0,10.82,0,16.23,0,1-.09,1,.92,1h9.11c.29,0,.43.12.43.41v2.52c0,.28-.11.43-.4.43H163.6c-.38,0-.51-.19-.5-.54,0-.2,0-.4,0-.6Z" transform="translate(-5.53 -5.67)"/></g></g></svg>